G04 #@! TF.GenerationSoftware,KiCad,Pcbnew,(5.1.8)-1*
G04 #@! TF.CreationDate,2021-10-09T07:53:52+02:00*
G04 #@! TF.ProjectId,EMS_stimulator,454d535f-7374-4696-9d75-6c61746f722e,rev?*
G04 #@! TF.SameCoordinates,PX57bcf00PY4755b80*
G04 #@! TF.FileFunction,Soldermask,Bot*
G04 #@! TF.FilePolarity,Negative*
%FSLAX46Y46*%
G04 Gerber Fmt 4.6, Leading zero omitted, Abs format (unit mm)*
G04 Created by KiCad (PCBNEW (5.1.8)-1) date 2021-10-09 07:53:52*
%MOMM*%
%LPD*%
G01*
G04 APERTURE LIST*
%ADD10C,1.600000*%
%ADD11C,0.400000*%
%ADD12C,0.100000*%
%ADD13O,2.400000X1.200000*%
%ADD14C,1.700000*%
%ADD15C,3.600000*%
%ADD16C,1.000000*%
%ADD17C,1.800000*%
G04 APERTURE END LIST*
D10*
X18200000Y-2930000D03*
X18200000Y-5470000D03*
G36*
G01*
X28400000Y-7045000D02*
X28400000Y-6555000D01*
G75*
G02*
X28505000Y-6450000I105000J0D01*
G01*
X29095000Y-6450000D01*
G75*
G02*
X29200000Y-6555000I0J-105000D01*
G01*
X29200000Y-7045000D01*
G75*
G02*
X29095000Y-7150000I-105000J0D01*
G01*
X28505000Y-7150000D01*
G75*
G02*
X28400000Y-7045000I0J105000D01*
G01*
G37*
G36*
G01*
X29600000Y-7045000D02*
X29600000Y-6555000D01*
G75*
G02*
X29705000Y-6450000I105000J0D01*
G01*
X30295000Y-6450000D01*
G75*
G02*
X30400000Y-6555000I0J-105000D01*
G01*
X30400000Y-7045000D01*
G75*
G02*
X30295000Y-7150000I-105000J0D01*
G01*
X29705000Y-7150000D01*
G75*
G02*
X29600000Y-7045000I0J105000D01*
G01*
G37*
G36*
G01*
X27845000Y-10200000D02*
X27355000Y-10200000D01*
G75*
G02*
X27250000Y-10095000I0J105000D01*
G01*
X27250000Y-9505000D01*
G75*
G02*
X27355000Y-9400000I105000J0D01*
G01*
X27845000Y-9400000D01*
G75*
G02*
X27950000Y-9505000I0J-105000D01*
G01*
X27950000Y-10095000D01*
G75*
G02*
X27845000Y-10200000I-105000J0D01*
G01*
G37*
G36*
G01*
X27845000Y-11400000D02*
X27355000Y-11400000D01*
G75*
G02*
X27250000Y-11295000I0J105000D01*
G01*
X27250000Y-10705000D01*
G75*
G02*
X27355000Y-10600000I105000J0D01*
G01*
X27845000Y-10600000D01*
G75*
G02*
X27950000Y-10705000I0J-105000D01*
G01*
X27950000Y-11295000D01*
G75*
G02*
X27845000Y-11400000I-105000J0D01*
G01*
G37*
G36*
G01*
X16950000Y-20150000D02*
X16950000Y-16450000D01*
G75*
G02*
X17100000Y-16300000I150000J0D01*
G01*
X18300000Y-16300000D01*
G75*
G02*
X18450000Y-16450000I0J-150000D01*
G01*
X18450000Y-20150000D01*
G75*
G02*
X18300000Y-20300000I-150000J0D01*
G01*
X17100000Y-20300000D01*
G75*
G02*
X16950000Y-20150000I0J150000D01*
G01*
G37*
G36*
G01*
X16950000Y-27150000D02*
X16950000Y-23450000D01*
G75*
G02*
X17100000Y-23300000I150000J0D01*
G01*
X18300000Y-23300000D01*
G75*
G02*
X18450000Y-23450000I0J-150000D01*
G01*
X18450000Y-27150000D01*
G75*
G02*
X18300000Y-27300000I-150000J0D01*
G01*
X17100000Y-27300000D01*
G75*
G02*
X16950000Y-27150000I0J150000D01*
G01*
G37*
G36*
G01*
X9600000Y-9645000D02*
X9600000Y-9155000D01*
G75*
G02*
X9705000Y-9050000I105000J0D01*
G01*
X10295000Y-9050000D01*
G75*
G02*
X10400000Y-9155000I0J-105000D01*
G01*
X10400000Y-9645000D01*
G75*
G02*
X10295000Y-9750000I-105000J0D01*
G01*
X9705000Y-9750000D01*
G75*
G02*
X9600000Y-9645000I0J105000D01*
G01*
G37*
G36*
G01*
X10800000Y-9645000D02*
X10800000Y-9155000D01*
G75*
G02*
X10905000Y-9050000I105000J0D01*
G01*
X11495000Y-9050000D01*
G75*
G02*
X11600000Y-9155000I0J-105000D01*
G01*
X11600000Y-9645000D01*
G75*
G02*
X11495000Y-9750000I-105000J0D01*
G01*
X10905000Y-9750000D01*
G75*
G02*
X10800000Y-9645000I0J105000D01*
G01*
G37*
G36*
G01*
X2000000Y-9155000D02*
X2000000Y-9645000D01*
G75*
G02*
X1895000Y-9750000I-105000J0D01*
G01*
X1305000Y-9750000D01*
G75*
G02*
X1200000Y-9645000I0J105000D01*
G01*
X1200000Y-9155000D01*
G75*
G02*
X1305000Y-9050000I105000J0D01*
G01*
X1895000Y-9050000D01*
G75*
G02*
X2000000Y-9155000I0J-105000D01*
G01*
G37*
G36*
G01*
X3200000Y-9155000D02*
X3200000Y-9645000D01*
G75*
G02*
X3095000Y-9750000I-105000J0D01*
G01*
X2505000Y-9750000D01*
G75*
G02*
X2400000Y-9645000I0J105000D01*
G01*
X2400000Y-9155000D01*
G75*
G02*
X2505000Y-9050000I105000J0D01*
G01*
X3095000Y-9050000D01*
G75*
G02*
X3200000Y-9155000I0J-105000D01*
G01*
G37*
G36*
G01*
X27350000Y-16450000D02*
X27350000Y-20150000D01*
G75*
G02*
X27200000Y-20300000I-150000J0D01*
G01*
X26000000Y-20300000D01*
G75*
G02*
X25850000Y-20150000I0J150000D01*
G01*
X25850000Y-16450000D01*
G75*
G02*
X26000000Y-16300000I150000J0D01*
G01*
X27200000Y-16300000D01*
G75*
G02*
X27350000Y-16450000I0J-150000D01*
G01*
G37*
G36*
G01*
X27350000Y-23450000D02*
X27350000Y-27150000D01*
G75*
G02*
X27200000Y-27300000I-150000J0D01*
G01*
X26000000Y-27300000D01*
G75*
G02*
X25850000Y-27150000I0J150000D01*
G01*
X25850000Y-23450000D01*
G75*
G02*
X26000000Y-23300000I150000J0D01*
G01*
X27200000Y-23300000D01*
G75*
G02*
X27350000Y-23450000I0J-150000D01*
G01*
G37*
G36*
G01*
X5750000Y-25240000D02*
X5750000Y-26360000D01*
G75*
G02*
X5610000Y-26500000I-140000J0D01*
G01*
X4390000Y-26500000D01*
G75*
G02*
X4250000Y-26360000I0J140000D01*
G01*
X4250000Y-25240000D01*
G75*
G02*
X4390000Y-25100000I140000J0D01*
G01*
X5610000Y-25100000D01*
G75*
G02*
X5750000Y-25240000I0J-140000D01*
G01*
G37*
G36*
G01*
X8950000Y-25240000D02*
X8950000Y-26360000D01*
G75*
G02*
X8810000Y-26500000I-140000J0D01*
G01*
X7590000Y-26500000D01*
G75*
G02*
X7450000Y-26360000I0J140000D01*
G01*
X7450000Y-25240000D01*
G75*
G02*
X7590000Y-25100000I140000J0D01*
G01*
X8810000Y-25100000D01*
G75*
G02*
X8950000Y-25240000I0J-140000D01*
G01*
G37*
D11*
X22400000Y-17600000D03*
X22400000Y-16800000D03*
G36*
G01*
X30625000Y-11535000D02*
X30625000Y-10465000D01*
G75*
G02*
X30690000Y-10400000I65000J0D01*
G01*
X31210000Y-10400000D01*
G75*
G02*
X31275000Y-10465000I0J-65000D01*
G01*
X31275000Y-11535000D01*
G75*
G02*
X31210000Y-11600000I-65000J0D01*
G01*
X30690000Y-11600000D01*
G75*
G02*
X30625000Y-11535000I0J65000D01*
G01*
G37*
G36*
G01*
X28725000Y-11535000D02*
X28725000Y-10465000D01*
G75*
G02*
X28790000Y-10400000I65000J0D01*
G01*
X29310000Y-10400000D01*
G75*
G02*
X29375000Y-10465000I0J-65000D01*
G01*
X29375000Y-11535000D01*
G75*
G02*
X29310000Y-11600000I-65000J0D01*
G01*
X28790000Y-11600000D01*
G75*
G02*
X28725000Y-11535000I0J65000D01*
G01*
G37*
G36*
G01*
X30625000Y-8735000D02*
X30625000Y-7665000D01*
G75*
G02*
X30690000Y-7600000I65000J0D01*
G01*
X31210000Y-7600000D01*
G75*
G02*
X31275000Y-7665000I0J-65000D01*
G01*
X31275000Y-8735000D01*
G75*
G02*
X31210000Y-8800000I-65000J0D01*
G01*
X30690000Y-8800000D01*
G75*
G02*
X30625000Y-8735000I0J65000D01*
G01*
G37*
G36*
G01*
X29675000Y-8735000D02*
X29675000Y-7665000D01*
G75*
G02*
X29740000Y-7600000I65000J0D01*
G01*
X30260000Y-7600000D01*
G75*
G02*
X30325000Y-7665000I0J-65000D01*
G01*
X30325000Y-8735000D01*
G75*
G02*
X30260000Y-8800000I-65000J0D01*
G01*
X29740000Y-8800000D01*
G75*
G02*
X29675000Y-8735000I0J65000D01*
G01*
G37*
G36*
G01*
X28725000Y-8735000D02*
X28725000Y-7665000D01*
G75*
G02*
X28790000Y-7600000I65000J0D01*
G01*
X29310000Y-7600000D01*
G75*
G02*
X29375000Y-7665000I0J-65000D01*
G01*
X29375000Y-8735000D01*
G75*
G02*
X29310000Y-8800000I-65000J0D01*
G01*
X28790000Y-8800000D01*
G75*
G02*
X28725000Y-8735000I0J65000D01*
G01*
G37*
D12*
G36*
X3655000Y-7550000D02*
G01*
X3655000Y-8500000D01*
X3654904Y-8500975D01*
X3654619Y-8501913D01*
X3654157Y-8502778D01*
X3653536Y-8503536D01*
X3652778Y-8504157D01*
X3651913Y-8504619D01*
X3650975Y-8504904D01*
X3650000Y-8505000D01*
X2950000Y-8505000D01*
X2949025Y-8504904D01*
X2948087Y-8504619D01*
X2947222Y-8504157D01*
X2946464Y-8503536D01*
X2945843Y-8502778D01*
X2945381Y-8501913D01*
X2945096Y-8500975D01*
X2945000Y-8500000D01*
X2945000Y-7980000D01*
X800000Y-7980000D01*
X799762Y-7979994D01*
X757762Y-7977994D01*
X757293Y-7977950D01*
X736293Y-7974950D01*
X736019Y-7974903D01*
X716019Y-7970903D01*
X715842Y-7970864D01*
X694842Y-7965864D01*
X694563Y-7965789D01*
X674563Y-7959789D01*
X674271Y-7959692D01*
X655271Y-7952692D01*
X655143Y-7952642D01*
X635143Y-7944642D01*
X634860Y-7944519D01*
X615860Y-7935519D01*
X615572Y-7935371D01*
X597572Y-7925371D01*
X597393Y-7925266D01*
X579393Y-7914266D01*
X579284Y-7914198D01*
X562284Y-7903198D01*
X561963Y-7902972D01*
X544963Y-7889972D01*
X544707Y-7889763D01*
X528707Y-7875763D01*
X528588Y-7875655D01*
X513588Y-7861655D01*
X513345Y-7861412D01*
X499345Y-7846412D01*
X499237Y-7846293D01*
X485237Y-7830293D01*
X485028Y-7830037D01*
X472028Y-7813037D01*
X471802Y-7812716D01*
X460802Y-7795716D01*
X460734Y-7795607D01*
X449734Y-7777607D01*
X449629Y-7777428D01*
X439629Y-7759428D01*
X439481Y-7759140D01*
X430481Y-7740140D01*
X430358Y-7739857D01*
X422358Y-7719857D01*
X422308Y-7719729D01*
X415308Y-7700729D01*
X415211Y-7700437D01*
X409211Y-7680437D01*
X409136Y-7680158D01*
X404136Y-7659158D01*
X404097Y-7658981D01*
X400097Y-7638981D01*
X400050Y-7638707D01*
X397050Y-7617707D01*
X397006Y-7617238D01*
X395006Y-7575238D01*
X395000Y-7575000D01*
X395000Y-7075000D01*
X395006Y-7074762D01*
X397006Y-7032762D01*
X397050Y-7032293D01*
X400050Y-7011293D01*
X400097Y-7011019D01*
X404097Y-6991019D01*
X404136Y-6990842D01*
X409136Y-6969842D01*
X409211Y-6969563D01*
X415211Y-6949563D01*
X415308Y-6949271D01*
X422308Y-6930271D01*
X422358Y-6930143D01*
X430358Y-6910143D01*
X430481Y-6909860D01*
X439481Y-6890860D01*
X439629Y-6890572D01*
X449629Y-6872572D01*
X449734Y-6872393D01*
X460734Y-6854393D01*
X460802Y-6854284D01*
X471802Y-6837284D01*
X472028Y-6836963D01*
X485028Y-6819963D01*
X485237Y-6819707D01*
X499237Y-6803707D01*
X499345Y-6803588D01*
X513345Y-6788588D01*
X513588Y-6788345D01*
X528588Y-6774345D01*
X528707Y-6774237D01*
X544707Y-6760237D01*
X544963Y-6760028D01*
X561963Y-6747028D01*
X562284Y-6746802D01*
X579284Y-6735802D01*
X579393Y-6735734D01*
X597393Y-6724734D01*
X597572Y-6724629D01*
X615572Y-6714629D01*
X615860Y-6714481D01*
X634860Y-6705481D01*
X635143Y-6705358D01*
X655143Y-6697358D01*
X655271Y-6697308D01*
X674271Y-6690308D01*
X674563Y-6690211D01*
X694563Y-6684211D01*
X694842Y-6684136D01*
X715842Y-6679136D01*
X716019Y-6679097D01*
X736019Y-6675097D01*
X736293Y-6675050D01*
X757293Y-6672050D01*
X757762Y-6672006D01*
X799762Y-6670006D01*
X800000Y-6670000D01*
X3580000Y-6670000D01*
X3580000Y-6500000D01*
X5680000Y-6500000D01*
X5680000Y-7550000D01*
X3655000Y-7550000D01*
G37*
G36*
X3580000Y-2700000D02*
G01*
X3580000Y-2530000D01*
X800000Y-2530000D01*
X799762Y-2529994D01*
X757762Y-2527994D01*
X757293Y-2527950D01*
X736293Y-2524950D01*
X736019Y-2524903D01*
X716019Y-2520903D01*
X715842Y-2520864D01*
X694842Y-2515864D01*
X694563Y-2515789D01*
X674563Y-2509789D01*
X674271Y-2509692D01*
X655271Y-2502692D01*
X655143Y-2502642D01*
X635143Y-2494642D01*
X634860Y-2494519D01*
X615860Y-2485519D01*
X615572Y-2485371D01*
X597572Y-2475371D01*
X597393Y-2475266D01*
X579393Y-2464266D01*
X579284Y-2464198D01*
X562284Y-2453198D01*
X561963Y-2452972D01*
X544963Y-2439972D01*
X544707Y-2439763D01*
X528707Y-2425763D01*
X528588Y-2425655D01*
X513588Y-2411655D01*
X513345Y-2411412D01*
X499345Y-2396412D01*
X499237Y-2396293D01*
X485237Y-2380293D01*
X485028Y-2380037D01*
X472028Y-2363037D01*
X471802Y-2362716D01*
X460802Y-2345716D01*
X460734Y-2345607D01*
X449734Y-2327607D01*
X449629Y-2327428D01*
X439629Y-2309428D01*
X439481Y-2309140D01*
X430481Y-2290140D01*
X430358Y-2289857D01*
X422358Y-2269857D01*
X422308Y-2269729D01*
X415308Y-2250729D01*
X415211Y-2250437D01*
X409211Y-2230437D01*
X409136Y-2230158D01*
X404136Y-2209158D01*
X404097Y-2208981D01*
X400097Y-2188981D01*
X400050Y-2188707D01*
X397050Y-2167707D01*
X397006Y-2167238D01*
X395006Y-2125238D01*
X395000Y-2125000D01*
X395000Y-1625000D01*
X395006Y-1624762D01*
X397006Y-1582762D01*
X397050Y-1582293D01*
X400050Y-1561293D01*
X400097Y-1561019D01*
X404097Y-1541019D01*
X404136Y-1540842D01*
X409136Y-1519842D01*
X409211Y-1519563D01*
X415211Y-1499563D01*
X415308Y-1499271D01*
X422308Y-1480271D01*
X422358Y-1480143D01*
X430358Y-1460143D01*
X430481Y-1459860D01*
X439481Y-1440860D01*
X439629Y-1440572D01*
X449629Y-1422572D01*
X449734Y-1422393D01*
X460734Y-1404393D01*
X460802Y-1404284D01*
X471802Y-1387284D01*
X472028Y-1386963D01*
X485028Y-1369963D01*
X485237Y-1369707D01*
X499237Y-1353707D01*
X499345Y-1353588D01*
X513345Y-1338588D01*
X513588Y-1338345D01*
X528588Y-1324345D01*
X528707Y-1324237D01*
X544707Y-1310237D01*
X544963Y-1310028D01*
X561963Y-1297028D01*
X562284Y-1296802D01*
X579284Y-1285802D01*
X579393Y-1285734D01*
X597393Y-1274734D01*
X597572Y-1274629D01*
X615572Y-1264629D01*
X615860Y-1264481D01*
X634860Y-1255481D01*
X635143Y-1255358D01*
X655143Y-1247358D01*
X655271Y-1247308D01*
X674271Y-1240308D01*
X674563Y-1240211D01*
X694563Y-1234211D01*
X694842Y-1234136D01*
X715842Y-1229136D01*
X716019Y-1229097D01*
X736019Y-1225097D01*
X736293Y-1225050D01*
X757293Y-1222050D01*
X757762Y-1222006D01*
X799762Y-1220006D01*
X800000Y-1220000D01*
X2945000Y-1220000D01*
X2945000Y-700000D01*
X2945096Y-699025D01*
X2945381Y-698087D01*
X2945843Y-697222D01*
X2946464Y-696464D01*
X2947222Y-695843D01*
X2948087Y-695381D01*
X2949025Y-695096D01*
X2950000Y-695000D01*
X3650000Y-695000D01*
X3650975Y-695096D01*
X3651913Y-695381D01*
X3652778Y-695843D01*
X3653536Y-696464D01*
X3654157Y-697222D01*
X3654619Y-698087D01*
X3654904Y-699025D01*
X3655000Y-700000D01*
X3655000Y-1650000D01*
X5680000Y-1650000D01*
X5680000Y-2700000D01*
X3580000Y-2700000D01*
G37*
D13*
X1600000Y-7325000D03*
X1600000Y-1875000D03*
G36*
G01*
X8820000Y-12830000D02*
X3980000Y-12830000D01*
G75*
G02*
X3600000Y-12450000I0J380000D01*
G01*
X3600000Y-9410000D01*
G75*
G02*
X3980000Y-9030000I380000J0D01*
G01*
X8820000Y-9030000D01*
G75*
G02*
X9200000Y-9410000I0J-380000D01*
G01*
X9200000Y-12450000D01*
G75*
G02*
X8820000Y-12830000I-380000J0D01*
G01*
G37*
G36*
G01*
X8820000Y-24130000D02*
X3980000Y-24130000D01*
G75*
G02*
X3600000Y-23750000I0J380000D01*
G01*
X3600000Y-20710000D01*
G75*
G02*
X3980000Y-20330000I380000J0D01*
G01*
X8820000Y-20330000D01*
G75*
G02*
X9200000Y-20710000I0J-380000D01*
G01*
X9200000Y-23750000D01*
G75*
G02*
X8820000Y-24130000I-380000J0D01*
G01*
G37*
D14*
X18070000Y-9460000D03*
X15530000Y-9460000D03*
X18070000Y-12000000D03*
X15530000Y-12000000D03*
X18070000Y-14540000D03*
X15530000Y-14540000D03*
D15*
X7400000Y-29900000D03*
X14300000Y-29900000D03*
G36*
G01*
X1300000Y-27850000D02*
X1300000Y-26850000D01*
G75*
G02*
X1400000Y-26750000I100000J0D01*
G01*
X2200000Y-26750000D01*
G75*
G02*
X2300000Y-26850000I0J-100000D01*
G01*
X2300000Y-27850000D01*
G75*
G02*
X2200000Y-27950000I-100000J0D01*
G01*
X1400000Y-27950000D01*
G75*
G02*
X1300000Y-27850000I0J100000D01*
G01*
G37*
G36*
G01*
X2250000Y-25550000D02*
X2250000Y-24550000D01*
G75*
G02*
X2350000Y-24450000I100000J0D01*
G01*
X3150000Y-24450000D01*
G75*
G02*
X3250000Y-24550000I0J-100000D01*
G01*
X3250000Y-25550000D01*
G75*
G02*
X3150000Y-25650000I-100000J0D01*
G01*
X2350000Y-25650000D01*
G75*
G02*
X2250000Y-25550000I0J100000D01*
G01*
G37*
G36*
G01*
X350000Y-25550000D02*
X350000Y-24550000D01*
G75*
G02*
X450000Y-24450000I100000J0D01*
G01*
X1250000Y-24450000D01*
G75*
G02*
X1350000Y-24550000I0J-100000D01*
G01*
X1350000Y-25550000D01*
G75*
G02*
X1250000Y-25650000I-100000J0D01*
G01*
X450000Y-25650000D01*
G75*
G02*
X350000Y-25550000I0J100000D01*
G01*
G37*
G36*
G01*
X30800000Y-7045000D02*
X30800000Y-6555000D01*
G75*
G02*
X30905000Y-6450000I105000J0D01*
G01*
X31495000Y-6450000D01*
G75*
G02*
X31600000Y-6555000I0J-105000D01*
G01*
X31600000Y-7045000D01*
G75*
G02*
X31495000Y-7150000I-105000J0D01*
G01*
X30905000Y-7150000D01*
G75*
G02*
X30800000Y-7045000I0J105000D01*
G01*
G37*
G36*
G01*
X32000000Y-7045000D02*
X32000000Y-6555000D01*
G75*
G02*
X32105000Y-6450000I105000J0D01*
G01*
X32695000Y-6450000D01*
G75*
G02*
X32800000Y-6555000I0J-105000D01*
G01*
X32800000Y-7045000D01*
G75*
G02*
X32695000Y-7150000I-105000J0D01*
G01*
X32105000Y-7150000D01*
G75*
G02*
X32000000Y-7045000I0J105000D01*
G01*
G37*
D16*
X3800000Y-27800000D03*
G36*
G01*
X39245000Y-4700000D02*
X38755000Y-4700000D01*
G75*
G02*
X38650000Y-4595000I0J105000D01*
G01*
X38650000Y-4005000D01*
G75*
G02*
X38755000Y-3900000I105000J0D01*
G01*
X39245000Y-3900000D01*
G75*
G02*
X39350000Y-4005000I0J-105000D01*
G01*
X39350000Y-4595000D01*
G75*
G02*
X39245000Y-4700000I-105000J0D01*
G01*
G37*
G36*
G01*
X39245000Y-5900000D02*
X38755000Y-5900000D01*
G75*
G02*
X38650000Y-5795000I0J105000D01*
G01*
X38650000Y-5205000D01*
G75*
G02*
X38755000Y-5100000I105000J0D01*
G01*
X39245000Y-5100000D01*
G75*
G02*
X39350000Y-5205000I0J-105000D01*
G01*
X39350000Y-5795000D01*
G75*
G02*
X39245000Y-5900000I-105000J0D01*
G01*
G37*
G36*
G01*
X39245000Y-12700000D02*
X38755000Y-12700000D01*
G75*
G02*
X38650000Y-12595000I0J105000D01*
G01*
X38650000Y-12005000D01*
G75*
G02*
X38755000Y-11900000I105000J0D01*
G01*
X39245000Y-11900000D01*
G75*
G02*
X39350000Y-12005000I0J-105000D01*
G01*
X39350000Y-12595000D01*
G75*
G02*
X39245000Y-12700000I-105000J0D01*
G01*
G37*
G36*
G01*
X39245000Y-11500000D02*
X38755000Y-11500000D01*
G75*
G02*
X38650000Y-11395000I0J105000D01*
G01*
X38650000Y-10805000D01*
G75*
G02*
X38755000Y-10700000I105000J0D01*
G01*
X39245000Y-10700000D01*
G75*
G02*
X39350000Y-10805000I0J-105000D01*
G01*
X39350000Y-11395000D01*
G75*
G02*
X39245000Y-11500000I-105000J0D01*
G01*
G37*
D17*
X17690000Y-31800000D03*
X20230000Y-31800000D03*
X22770000Y-31800000D03*
X25310000Y-31800000D03*
G36*
G01*
X39245000Y-3500000D02*
X38755000Y-3500000D01*
G75*
G02*
X38650000Y-3395000I0J105000D01*
G01*
X38650000Y-2805000D01*
G75*
G02*
X38755000Y-2700000I105000J0D01*
G01*
X39245000Y-2700000D01*
G75*
G02*
X39350000Y-2805000I0J-105000D01*
G01*
X39350000Y-3395000D01*
G75*
G02*
X39245000Y-3500000I-105000J0D01*
G01*
G37*
G36*
G01*
X39245000Y-2300000D02*
X38755000Y-2300000D01*
G75*
G02*
X38650000Y-2195000I0J105000D01*
G01*
X38650000Y-1605000D01*
G75*
G02*
X38755000Y-1500000I105000J0D01*
G01*
X39245000Y-1500000D01*
G75*
G02*
X39350000Y-1605000I0J-105000D01*
G01*
X39350000Y-2195000D01*
G75*
G02*
X39245000Y-2300000I-105000J0D01*
G01*
G37*
G36*
G01*
X39245000Y-9100000D02*
X38755000Y-9100000D01*
G75*
G02*
X38650000Y-8995000I0J105000D01*
G01*
X38650000Y-8405000D01*
G75*
G02*
X38755000Y-8300000I105000J0D01*
G01*
X39245000Y-8300000D01*
G75*
G02*
X39350000Y-8405000I0J-105000D01*
G01*
X39350000Y-8995000D01*
G75*
G02*
X39245000Y-9100000I-105000J0D01*
G01*
G37*
G36*
G01*
X39245000Y-10300000D02*
X38755000Y-10300000D01*
G75*
G02*
X38650000Y-10195000I0J105000D01*
G01*
X38650000Y-9605000D01*
G75*
G02*
X38755000Y-9500000I105000J0D01*
G01*
X39245000Y-9500000D01*
G75*
G02*
X39350000Y-9605000I0J-105000D01*
G01*
X39350000Y-10195000D01*
G75*
G02*
X39245000Y-10300000I-105000J0D01*
G01*
G37*
G36*
G01*
X40200000Y-900000D02*
X41000000Y-900000D01*
G75*
G02*
X41100000Y-1000000I0J-100000D01*
G01*
X41100000Y-2000000D01*
G75*
G02*
X41000000Y-2100000I-100000J0D01*
G01*
X40200000Y-2100000D01*
G75*
G02*
X40100000Y-2000000I0J100000D01*
G01*
X40100000Y-1000000D01*
G75*
G02*
X40200000Y-900000I100000J0D01*
G01*
G37*
G36*
G01*
X41800000Y-900000D02*
X42600000Y-900000D01*
G75*
G02*
X42700000Y-1000000I0J-100000D01*
G01*
X42700000Y-2000000D01*
G75*
G02*
X42600000Y-2100000I-100000J0D01*
G01*
X41800000Y-2100000D01*
G75*
G02*
X41700000Y-2000000I0J100000D01*
G01*
X41700000Y-1000000D01*
G75*
G02*
X41800000Y-900000I100000J0D01*
G01*
G37*
G36*
G01*
X40100000Y-5500000D02*
X40900000Y-5500000D01*
G75*
G02*
X41000000Y-5600000I0J-100000D01*
G01*
X41000000Y-6600000D01*
G75*
G02*
X40900000Y-6700000I-100000J0D01*
G01*
X40100000Y-6700000D01*
G75*
G02*
X40000000Y-6600000I0J100000D01*
G01*
X40000000Y-5600000D01*
G75*
G02*
X40100000Y-5500000I100000J0D01*
G01*
G37*
G36*
G01*
X41800000Y-5500000D02*
X42600000Y-5500000D01*
G75*
G02*
X42700000Y-5600000I0J-100000D01*
G01*
X42700000Y-6600000D01*
G75*
G02*
X42600000Y-6700000I-100000J0D01*
G01*
X41800000Y-6700000D01*
G75*
G02*
X41700000Y-6600000I0J100000D01*
G01*
X41700000Y-5600000D01*
G75*
G02*
X41800000Y-5500000I100000J0D01*
G01*
G37*
G36*
G01*
X41700000Y-12300000D02*
X42500000Y-12300000D01*
G75*
G02*
X42600000Y-12400000I0J-100000D01*
G01*
X42600000Y-13400000D01*
G75*
G02*
X42500000Y-13500000I-100000J0D01*
G01*
X41700000Y-13500000D01*
G75*
G02*
X41600000Y-13400000I0J100000D01*
G01*
X41600000Y-12400000D01*
G75*
G02*
X41700000Y-12300000I100000J0D01*
G01*
G37*
G36*
G01*
X40000000Y-12300000D02*
X40800000Y-12300000D01*
G75*
G02*
X40900000Y-12400000I0J-100000D01*
G01*
X40900000Y-13400000D01*
G75*
G02*
X40800000Y-13500000I-100000J0D01*
G01*
X40000000Y-13500000D01*
G75*
G02*
X39900000Y-13400000I0J100000D01*
G01*
X39900000Y-12400000D01*
G75*
G02*
X40000000Y-12300000I100000J0D01*
G01*
G37*
G36*
G01*
X41700000Y-7700000D02*
X42500000Y-7700000D01*
G75*
G02*
X42600000Y-7800000I0J-100000D01*
G01*
X42600000Y-8800000D01*
G75*
G02*
X42500000Y-8900000I-100000J0D01*
G01*
X41700000Y-8900000D01*
G75*
G02*
X41600000Y-8800000I0J100000D01*
G01*
X41600000Y-7800000D01*
G75*
G02*
X41700000Y-7700000I100000J0D01*
G01*
G37*
G36*
G01*
X40100000Y-7700000D02*
X40900000Y-7700000D01*
G75*
G02*
X41000000Y-7800000I0J-100000D01*
G01*
X41000000Y-8800000D01*
G75*
G02*
X40900000Y-8900000I-100000J0D01*
G01*
X40100000Y-8900000D01*
G75*
G02*
X40000000Y-8800000I0J100000D01*
G01*
X40000000Y-7800000D01*
G75*
G02*
X40100000Y-7700000I100000J0D01*
G01*
G37*
M02*
