G04 #@! TF.GenerationSoftware,KiCad,Pcbnew,(5.1.8)-1*
G04 #@! TF.CreationDate,2021-10-09T07:53:52+02:00*
G04 #@! TF.ProjectId,EMS_stimulator,454d535f-7374-4696-9d75-6c61746f722e,rev?*
G04 #@! TF.SameCoordinates,PX57bcf00PY4755b80*
G04 #@! TF.FileFunction,Soldermask,Top*
G04 #@! TF.FilePolarity,Negative*
%FSLAX46Y46*%
G04 Gerber Fmt 4.6, Leading zero omitted, Abs format (unit mm)*
G04 Created by KiCad (PCBNEW (5.1.8)-1) date 2021-10-09 07:53:52*
%MOMM*%
%LPD*%
G01*
G04 APERTURE LIST*
%ADD10C,0.010000*%
%ADD11C,1.600000*%
%ADD12C,0.400000*%
%ADD13O,2.400000X1.200000*%
%ADD14R,2.500000X1.425000*%
%ADD15R,1.750000X0.400000*%
%ADD16C,1.700000*%
%ADD17C,3.600000*%
%ADD18C,1.000000*%
%ADD19C,1.800000*%
G04 APERTURE END LIST*
D10*
G36*
X3750000Y-600000D02*
G01*
X3750000Y-2625000D01*
X800000Y-2625000D01*
X774000Y-2624000D01*
X748000Y-2622000D01*
X722000Y-2619000D01*
X696000Y-2614000D01*
X671000Y-2608000D01*
X645000Y-2601000D01*
X621000Y-2592000D01*
X597000Y-2582000D01*
X573000Y-2571000D01*
X550000Y-2558000D01*
X528000Y-2544000D01*
X506000Y-2530000D01*
X485000Y-2514000D01*
X465000Y-2497000D01*
X446000Y-2479000D01*
X428000Y-2460000D01*
X411000Y-2440000D01*
X395000Y-2419000D01*
X381000Y-2397000D01*
X367000Y-2375000D01*
X354000Y-2352000D01*
X343000Y-2328000D01*
X333000Y-2304000D01*
X324000Y-2280000D01*
X317000Y-2254000D01*
X311000Y-2229000D01*
X306000Y-2203000D01*
X303000Y-2177000D01*
X301000Y-2151000D01*
X300000Y-2125000D01*
X300000Y-1625000D01*
X301000Y-1599000D01*
X303000Y-1573000D01*
X306000Y-1547000D01*
X311000Y-1521000D01*
X317000Y-1496000D01*
X324000Y-1470000D01*
X333000Y-1446000D01*
X343000Y-1422000D01*
X354000Y-1398000D01*
X367000Y-1375000D01*
X381000Y-1353000D01*
X395000Y-1331000D01*
X411000Y-1310000D01*
X428000Y-1290000D01*
X446000Y-1271000D01*
X465000Y-1253000D01*
X485000Y-1236000D01*
X506000Y-1220000D01*
X528000Y-1206000D01*
X550000Y-1192000D01*
X573000Y-1179000D01*
X597000Y-1168000D01*
X621000Y-1158000D01*
X645000Y-1149000D01*
X671000Y-1142000D01*
X696000Y-1136000D01*
X722000Y-1131000D01*
X748000Y-1128000D01*
X774000Y-1126000D01*
X800000Y-1125000D01*
X2850000Y-1125000D01*
X2850000Y-600000D01*
X3750000Y-600000D01*
G37*
X3750000Y-600000D02*
X3750000Y-2625000D01*
X800000Y-2625000D01*
X774000Y-2624000D01*
X748000Y-2622000D01*
X722000Y-2619000D01*
X696000Y-2614000D01*
X671000Y-2608000D01*
X645000Y-2601000D01*
X621000Y-2592000D01*
X597000Y-2582000D01*
X573000Y-2571000D01*
X550000Y-2558000D01*
X528000Y-2544000D01*
X506000Y-2530000D01*
X485000Y-2514000D01*
X465000Y-2497000D01*
X446000Y-2479000D01*
X428000Y-2460000D01*
X411000Y-2440000D01*
X395000Y-2419000D01*
X381000Y-2397000D01*
X367000Y-2375000D01*
X354000Y-2352000D01*
X343000Y-2328000D01*
X333000Y-2304000D01*
X324000Y-2280000D01*
X317000Y-2254000D01*
X311000Y-2229000D01*
X306000Y-2203000D01*
X303000Y-2177000D01*
X301000Y-2151000D01*
X300000Y-2125000D01*
X300000Y-1625000D01*
X301000Y-1599000D01*
X303000Y-1573000D01*
X306000Y-1547000D01*
X311000Y-1521000D01*
X317000Y-1496000D01*
X324000Y-1470000D01*
X333000Y-1446000D01*
X343000Y-1422000D01*
X354000Y-1398000D01*
X367000Y-1375000D01*
X381000Y-1353000D01*
X395000Y-1331000D01*
X411000Y-1310000D01*
X428000Y-1290000D01*
X446000Y-1271000D01*
X465000Y-1253000D01*
X485000Y-1236000D01*
X506000Y-1220000D01*
X528000Y-1206000D01*
X550000Y-1192000D01*
X573000Y-1179000D01*
X597000Y-1168000D01*
X621000Y-1158000D01*
X645000Y-1149000D01*
X671000Y-1142000D01*
X696000Y-1136000D01*
X722000Y-1131000D01*
X748000Y-1128000D01*
X774000Y-1126000D01*
X800000Y-1125000D01*
X2850000Y-1125000D01*
X2850000Y-600000D01*
X3750000Y-600000D01*
G36*
X5460000Y-600000D02*
G01*
X5460000Y-2800000D01*
X3800000Y-2800000D01*
X3800000Y-600000D01*
X5460000Y-600000D01*
G37*
X5460000Y-600000D02*
X5460000Y-2800000D01*
X3800000Y-2800000D01*
X3800000Y-600000D01*
X5460000Y-600000D01*
G36*
X5460000Y-6400000D02*
G01*
X5460000Y-8600000D01*
X3800000Y-8600000D01*
X3800000Y-6400000D01*
X5460000Y-6400000D01*
G37*
X5460000Y-6400000D02*
X5460000Y-8600000D01*
X3800000Y-8600000D01*
X3800000Y-6400000D01*
X5460000Y-6400000D01*
G36*
X3750000Y-8600000D02*
G01*
X3750000Y-6575000D01*
X800000Y-6575000D01*
X774000Y-6576000D01*
X748000Y-6578000D01*
X722000Y-6581000D01*
X696000Y-6586000D01*
X671000Y-6592000D01*
X645000Y-6599000D01*
X621000Y-6608000D01*
X597000Y-6618000D01*
X573000Y-6629000D01*
X550000Y-6642000D01*
X528000Y-6656000D01*
X506000Y-6670000D01*
X485000Y-6686000D01*
X465000Y-6703000D01*
X446000Y-6721000D01*
X428000Y-6740000D01*
X411000Y-6760000D01*
X395000Y-6781000D01*
X381000Y-6803000D01*
X367000Y-6825000D01*
X354000Y-6848000D01*
X343000Y-6872000D01*
X333000Y-6896000D01*
X324000Y-6920000D01*
X317000Y-6946000D01*
X311000Y-6971000D01*
X306000Y-6997000D01*
X303000Y-7023000D01*
X301000Y-7049000D01*
X300000Y-7075000D01*
X300000Y-7575000D01*
X301000Y-7601000D01*
X303000Y-7627000D01*
X306000Y-7653000D01*
X311000Y-7679000D01*
X317000Y-7704000D01*
X324000Y-7730000D01*
X333000Y-7754000D01*
X343000Y-7778000D01*
X354000Y-7802000D01*
X367000Y-7825000D01*
X381000Y-7847000D01*
X395000Y-7869000D01*
X411000Y-7890000D01*
X428000Y-7910000D01*
X446000Y-7929000D01*
X465000Y-7947000D01*
X485000Y-7964000D01*
X506000Y-7980000D01*
X528000Y-7994000D01*
X550000Y-8008000D01*
X573000Y-8021000D01*
X597000Y-8032000D01*
X621000Y-8042000D01*
X645000Y-8051000D01*
X671000Y-8058000D01*
X696000Y-8064000D01*
X722000Y-8069000D01*
X748000Y-8072000D01*
X774000Y-8074000D01*
X800000Y-8075000D01*
X2850000Y-8075000D01*
X2850000Y-8600000D01*
X3750000Y-8600000D01*
G37*
X3750000Y-8600000D02*
X3750000Y-6575000D01*
X800000Y-6575000D01*
X774000Y-6576000D01*
X748000Y-6578000D01*
X722000Y-6581000D01*
X696000Y-6586000D01*
X671000Y-6592000D01*
X645000Y-6599000D01*
X621000Y-6608000D01*
X597000Y-6618000D01*
X573000Y-6629000D01*
X550000Y-6642000D01*
X528000Y-6656000D01*
X506000Y-6670000D01*
X485000Y-6686000D01*
X465000Y-6703000D01*
X446000Y-6721000D01*
X428000Y-6740000D01*
X411000Y-6760000D01*
X395000Y-6781000D01*
X381000Y-6803000D01*
X367000Y-6825000D01*
X354000Y-6848000D01*
X343000Y-6872000D01*
X333000Y-6896000D01*
X324000Y-6920000D01*
X317000Y-6946000D01*
X311000Y-6971000D01*
X306000Y-6997000D01*
X303000Y-7023000D01*
X301000Y-7049000D01*
X300000Y-7075000D01*
X300000Y-7575000D01*
X301000Y-7601000D01*
X303000Y-7627000D01*
X306000Y-7653000D01*
X311000Y-7679000D01*
X317000Y-7704000D01*
X324000Y-7730000D01*
X333000Y-7754000D01*
X343000Y-7778000D01*
X354000Y-7802000D01*
X367000Y-7825000D01*
X381000Y-7847000D01*
X395000Y-7869000D01*
X411000Y-7890000D01*
X428000Y-7910000D01*
X446000Y-7929000D01*
X465000Y-7947000D01*
X485000Y-7964000D01*
X506000Y-7980000D01*
X528000Y-7994000D01*
X550000Y-8008000D01*
X573000Y-8021000D01*
X597000Y-8032000D01*
X621000Y-8042000D01*
X645000Y-8051000D01*
X671000Y-8058000D01*
X696000Y-8064000D01*
X722000Y-8069000D01*
X748000Y-8072000D01*
X774000Y-8074000D01*
X800000Y-8075000D01*
X2850000Y-8075000D01*
X2850000Y-8600000D01*
X3750000Y-8600000D01*
D11*
X18200000Y-2930000D03*
X18200000Y-5470000D03*
G36*
G01*
X38155000Y-2000000D02*
X38645000Y-2000000D01*
G75*
G02*
X38750000Y-2105000I0J-105000D01*
G01*
X38750000Y-2695000D01*
G75*
G02*
X38645000Y-2800000I-105000J0D01*
G01*
X38155000Y-2800000D01*
G75*
G02*
X38050000Y-2695000I0J105000D01*
G01*
X38050000Y-2105000D01*
G75*
G02*
X38155000Y-2000000I105000J0D01*
G01*
G37*
G36*
G01*
X38155000Y-800000D02*
X38645000Y-800000D01*
G75*
G02*
X38750000Y-905000I0J-105000D01*
G01*
X38750000Y-1495000D01*
G75*
G02*
X38645000Y-1600000I-105000J0D01*
G01*
X38155000Y-1600000D01*
G75*
G02*
X38050000Y-1495000I0J105000D01*
G01*
X38050000Y-905000D01*
G75*
G02*
X38155000Y-800000I105000J0D01*
G01*
G37*
G36*
G01*
X9755000Y-4400000D02*
X10245000Y-4400000D01*
G75*
G02*
X10350000Y-4505000I0J-105000D01*
G01*
X10350000Y-5095000D01*
G75*
G02*
X10245000Y-5200000I-105000J0D01*
G01*
X9755000Y-5200000D01*
G75*
G02*
X9650000Y-5095000I0J105000D01*
G01*
X9650000Y-4505000D01*
G75*
G02*
X9755000Y-4400000I105000J0D01*
G01*
G37*
G36*
G01*
X9755000Y-3200000D02*
X10245000Y-3200000D01*
G75*
G02*
X10350000Y-3305000I0J-105000D01*
G01*
X10350000Y-3895000D01*
G75*
G02*
X10245000Y-4000000I-105000J0D01*
G01*
X9755000Y-4000000D01*
G75*
G02*
X9650000Y-3895000I0J105000D01*
G01*
X9650000Y-3305000D01*
G75*
G02*
X9755000Y-3200000I105000J0D01*
G01*
G37*
G36*
G01*
X15755000Y-3200000D02*
X16245000Y-3200000D01*
G75*
G02*
X16350000Y-3305000I0J-105000D01*
G01*
X16350000Y-3895000D01*
G75*
G02*
X16245000Y-4000000I-105000J0D01*
G01*
X15755000Y-4000000D01*
G75*
G02*
X15650000Y-3895000I0J105000D01*
G01*
X15650000Y-3305000D01*
G75*
G02*
X15755000Y-3200000I105000J0D01*
G01*
G37*
G36*
G01*
X15755000Y-4400000D02*
X16245000Y-4400000D01*
G75*
G02*
X16350000Y-4505000I0J-105000D01*
G01*
X16350000Y-5095000D01*
G75*
G02*
X16245000Y-5200000I-105000J0D01*
G01*
X15755000Y-5200000D01*
G75*
G02*
X15650000Y-5095000I0J105000D01*
G01*
X15650000Y-4505000D01*
G75*
G02*
X15755000Y-4400000I105000J0D01*
G01*
G37*
G36*
G01*
X19955000Y-5600000D02*
X20445000Y-5600000D01*
G75*
G02*
X20550000Y-5705000I0J-105000D01*
G01*
X20550000Y-6295000D01*
G75*
G02*
X20445000Y-6400000I-105000J0D01*
G01*
X19955000Y-6400000D01*
G75*
G02*
X19850000Y-6295000I0J105000D01*
G01*
X19850000Y-5705000D01*
G75*
G02*
X19955000Y-5600000I105000J0D01*
G01*
G37*
G36*
G01*
X19955000Y-4400000D02*
X20445000Y-4400000D01*
G75*
G02*
X20550000Y-4505000I0J-105000D01*
G01*
X20550000Y-5095000D01*
G75*
G02*
X20445000Y-5200000I-105000J0D01*
G01*
X19955000Y-5200000D01*
G75*
G02*
X19850000Y-5095000I0J105000D01*
G01*
X19850000Y-4505000D01*
G75*
G02*
X19955000Y-4400000I105000J0D01*
G01*
G37*
G36*
G01*
X20645000Y-18200000D02*
X20155000Y-18200000D01*
G75*
G02*
X20050000Y-18095000I0J105000D01*
G01*
X20050000Y-17505000D01*
G75*
G02*
X20155000Y-17400000I105000J0D01*
G01*
X20645000Y-17400000D01*
G75*
G02*
X20750000Y-17505000I0J-105000D01*
G01*
X20750000Y-18095000D01*
G75*
G02*
X20645000Y-18200000I-105000J0D01*
G01*
G37*
G36*
G01*
X20645000Y-17000000D02*
X20155000Y-17000000D01*
G75*
G02*
X20050000Y-16895000I0J105000D01*
G01*
X20050000Y-16305000D01*
G75*
G02*
X20155000Y-16200000I105000J0D01*
G01*
X20645000Y-16200000D01*
G75*
G02*
X20750000Y-16305000I0J-105000D01*
G01*
X20750000Y-16895000D01*
G75*
G02*
X20645000Y-17000000I-105000J0D01*
G01*
G37*
G36*
G01*
X24645000Y-17000000D02*
X24155000Y-17000000D01*
G75*
G02*
X24050000Y-16895000I0J105000D01*
G01*
X24050000Y-16305000D01*
G75*
G02*
X24155000Y-16200000I105000J0D01*
G01*
X24645000Y-16200000D01*
G75*
G02*
X24750000Y-16305000I0J-105000D01*
G01*
X24750000Y-16895000D01*
G75*
G02*
X24645000Y-17000000I-105000J0D01*
G01*
G37*
G36*
G01*
X24645000Y-18200000D02*
X24155000Y-18200000D01*
G75*
G02*
X24050000Y-18095000I0J105000D01*
G01*
X24050000Y-17505000D01*
G75*
G02*
X24155000Y-17400000I105000J0D01*
G01*
X24645000Y-17400000D01*
G75*
G02*
X24750000Y-17505000I0J-105000D01*
G01*
X24750000Y-18095000D01*
G75*
G02*
X24645000Y-18200000I-105000J0D01*
G01*
G37*
G36*
G01*
X37600000Y-20555000D02*
X37600000Y-21045000D01*
G75*
G02*
X37495000Y-21150000I-105000J0D01*
G01*
X36905000Y-21150000D01*
G75*
G02*
X36800000Y-21045000I0J105000D01*
G01*
X36800000Y-20555000D01*
G75*
G02*
X36905000Y-20450000I105000J0D01*
G01*
X37495000Y-20450000D01*
G75*
G02*
X37600000Y-20555000I0J-105000D01*
G01*
G37*
G36*
G01*
X38800000Y-20555000D02*
X38800000Y-21045000D01*
G75*
G02*
X38695000Y-21150000I-105000J0D01*
G01*
X38105000Y-21150000D01*
G75*
G02*
X38000000Y-21045000I0J105000D01*
G01*
X38000000Y-20555000D01*
G75*
G02*
X38105000Y-20450000I105000J0D01*
G01*
X38695000Y-20450000D01*
G75*
G02*
X38800000Y-20555000I0J-105000D01*
G01*
G37*
G36*
G01*
X33000000Y-23155000D02*
X33000000Y-23645000D01*
G75*
G02*
X32895000Y-23750000I-105000J0D01*
G01*
X32305000Y-23750000D01*
G75*
G02*
X32200000Y-23645000I0J105000D01*
G01*
X32200000Y-23155000D01*
G75*
G02*
X32305000Y-23050000I105000J0D01*
G01*
X32895000Y-23050000D01*
G75*
G02*
X33000000Y-23155000I0J-105000D01*
G01*
G37*
G36*
G01*
X31800000Y-23155000D02*
X31800000Y-23645000D01*
G75*
G02*
X31695000Y-23750000I-105000J0D01*
G01*
X31105000Y-23750000D01*
G75*
G02*
X31000000Y-23645000I0J105000D01*
G01*
X31000000Y-23155000D01*
G75*
G02*
X31105000Y-23050000I105000J0D01*
G01*
X31695000Y-23050000D01*
G75*
G02*
X31800000Y-23155000I0J-105000D01*
G01*
G37*
G36*
G01*
X38600000Y-16755000D02*
X38600000Y-17245000D01*
G75*
G02*
X38495000Y-17350000I-105000J0D01*
G01*
X37905000Y-17350000D01*
G75*
G02*
X37800000Y-17245000I0J105000D01*
G01*
X37800000Y-16755000D01*
G75*
G02*
X37905000Y-16650000I105000J0D01*
G01*
X38495000Y-16650000D01*
G75*
G02*
X38600000Y-16755000I0J-105000D01*
G01*
G37*
G36*
G01*
X39800000Y-16755000D02*
X39800000Y-17245000D01*
G75*
G02*
X39695000Y-17350000I-105000J0D01*
G01*
X39105000Y-17350000D01*
G75*
G02*
X39000000Y-17245000I0J105000D01*
G01*
X39000000Y-16755000D01*
G75*
G02*
X39105000Y-16650000I105000J0D01*
G01*
X39695000Y-16650000D01*
G75*
G02*
X39800000Y-16755000I0J-105000D01*
G01*
G37*
G36*
G01*
X41200000Y-11955000D02*
X41200000Y-12445000D01*
G75*
G02*
X41095000Y-12550000I-105000J0D01*
G01*
X40505000Y-12550000D01*
G75*
G02*
X40400000Y-12445000I0J105000D01*
G01*
X40400000Y-11955000D01*
G75*
G02*
X40505000Y-11850000I105000J0D01*
G01*
X41095000Y-11850000D01*
G75*
G02*
X41200000Y-11955000I0J-105000D01*
G01*
G37*
G36*
G01*
X40000000Y-11955000D02*
X40000000Y-12445000D01*
G75*
G02*
X39895000Y-12550000I-105000J0D01*
G01*
X39305000Y-12550000D01*
G75*
G02*
X39200000Y-12445000I0J105000D01*
G01*
X39200000Y-11955000D01*
G75*
G02*
X39305000Y-11850000I105000J0D01*
G01*
X39895000Y-11850000D01*
G75*
G02*
X40000000Y-11955000I0J-105000D01*
G01*
G37*
G36*
G01*
X1555000Y-18600000D02*
X2045000Y-18600000D01*
G75*
G02*
X2150000Y-18705000I0J-105000D01*
G01*
X2150000Y-19295000D01*
G75*
G02*
X2045000Y-19400000I-105000J0D01*
G01*
X1555000Y-19400000D01*
G75*
G02*
X1450000Y-19295000I0J105000D01*
G01*
X1450000Y-18705000D01*
G75*
G02*
X1555000Y-18600000I105000J0D01*
G01*
G37*
G36*
G01*
X1555000Y-19800000D02*
X2045000Y-19800000D01*
G75*
G02*
X2150000Y-19905000I0J-105000D01*
G01*
X2150000Y-20495000D01*
G75*
G02*
X2045000Y-20600000I-105000J0D01*
G01*
X1555000Y-20600000D01*
G75*
G02*
X1450000Y-20495000I0J105000D01*
G01*
X1450000Y-19905000D01*
G75*
G02*
X1555000Y-19800000I105000J0D01*
G01*
G37*
G36*
G01*
X37200000Y-27445000D02*
X37200000Y-26955000D01*
G75*
G02*
X37305000Y-26850000I105000J0D01*
G01*
X37895000Y-26850000D01*
G75*
G02*
X38000000Y-26955000I0J-105000D01*
G01*
X38000000Y-27445000D01*
G75*
G02*
X37895000Y-27550000I-105000J0D01*
G01*
X37305000Y-27550000D01*
G75*
G02*
X37200000Y-27445000I0J105000D01*
G01*
G37*
G36*
G01*
X38400000Y-27445000D02*
X38400000Y-26955000D01*
G75*
G02*
X38505000Y-26850000I105000J0D01*
G01*
X39095000Y-26850000D01*
G75*
G02*
X39200000Y-26955000I0J-105000D01*
G01*
X39200000Y-27445000D01*
G75*
G02*
X39095000Y-27550000I-105000J0D01*
G01*
X38505000Y-27550000D01*
G75*
G02*
X38400000Y-27445000I0J105000D01*
G01*
G37*
G36*
G01*
X35245000Y-22200000D02*
X34755000Y-22200000D01*
G75*
G02*
X34650000Y-22095000I0J105000D01*
G01*
X34650000Y-21505000D01*
G75*
G02*
X34755000Y-21400000I105000J0D01*
G01*
X35245000Y-21400000D01*
G75*
G02*
X35350000Y-21505000I0J-105000D01*
G01*
X35350000Y-22095000D01*
G75*
G02*
X35245000Y-22200000I-105000J0D01*
G01*
G37*
G36*
G01*
X35245000Y-21000000D02*
X34755000Y-21000000D01*
G75*
G02*
X34650000Y-20895000I0J105000D01*
G01*
X34650000Y-20305000D01*
G75*
G02*
X34755000Y-20200000I105000J0D01*
G01*
X35245000Y-20200000D01*
G75*
G02*
X35350000Y-20305000I0J-105000D01*
G01*
X35350000Y-20895000D01*
G75*
G02*
X35245000Y-21000000I-105000J0D01*
G01*
G37*
G36*
G01*
X8230000Y-9300000D02*
X6970000Y-9300000D01*
G75*
G02*
X6700000Y-9030000I0J270000D01*
G01*
X6700000Y-7270000D01*
G75*
G02*
X6970000Y-7000000I270000J0D01*
G01*
X8230000Y-7000000D01*
G75*
G02*
X8500000Y-7270000I0J-270000D01*
G01*
X8500000Y-9030000D01*
G75*
G02*
X8230000Y-9300000I-270000J0D01*
G01*
G37*
G36*
G01*
X8230000Y-4300000D02*
X6970000Y-4300000D01*
G75*
G02*
X6700000Y-4030000I0J270000D01*
G01*
X6700000Y-2270000D01*
G75*
G02*
X6970000Y-2000000I270000J0D01*
G01*
X8230000Y-2000000D01*
G75*
G02*
X8500000Y-2270000I0J-270000D01*
G01*
X8500000Y-4030000D01*
G75*
G02*
X8230000Y-4300000I-270000J0D01*
G01*
G37*
G36*
G01*
X10240000Y-27750000D02*
X11360000Y-27750000D01*
G75*
G02*
X11500000Y-27890000I0J-140000D01*
G01*
X11500000Y-29110000D01*
G75*
G02*
X11360000Y-29250000I-140000J0D01*
G01*
X10240000Y-29250000D01*
G75*
G02*
X10100000Y-29110000I0J140000D01*
G01*
X10100000Y-27890000D01*
G75*
G02*
X10240000Y-27750000I140000J0D01*
G01*
G37*
G36*
G01*
X10240000Y-30950000D02*
X11360000Y-30950000D01*
G75*
G02*
X11500000Y-31090000I0J-140000D01*
G01*
X11500000Y-32310000D01*
G75*
G02*
X11360000Y-32450000I-140000J0D01*
G01*
X10240000Y-32450000D01*
G75*
G02*
X10100000Y-32310000I0J140000D01*
G01*
X10100000Y-31090000D01*
G75*
G02*
X10240000Y-30950000I140000J0D01*
G01*
G37*
G36*
G01*
X25150000Y-28960000D02*
X25150000Y-27840000D01*
G75*
G02*
X25290000Y-27700000I140000J0D01*
G01*
X26510000Y-27700000D01*
G75*
G02*
X26650000Y-27840000I0J-140000D01*
G01*
X26650000Y-28960000D01*
G75*
G02*
X26510000Y-29100000I-140000J0D01*
G01*
X25290000Y-29100000D01*
G75*
G02*
X25150000Y-28960000I0J140000D01*
G01*
G37*
G36*
G01*
X21950000Y-28960000D02*
X21950000Y-27840000D01*
G75*
G02*
X22090000Y-27700000I140000J0D01*
G01*
X23310000Y-27700000D01*
G75*
G02*
X23450000Y-27840000I0J-140000D01*
G01*
X23450000Y-28960000D01*
G75*
G02*
X23310000Y-29100000I-140000J0D01*
G01*
X22090000Y-29100000D01*
G75*
G02*
X21950000Y-28960000I0J140000D01*
G01*
G37*
G36*
G01*
X14935000Y-6675000D02*
X13865000Y-6675000D01*
G75*
G02*
X13800000Y-6610000I0J65000D01*
G01*
X13800000Y-6090000D01*
G75*
G02*
X13865000Y-6025000I65000J0D01*
G01*
X14935000Y-6025000D01*
G75*
G02*
X15000000Y-6090000I0J-65000D01*
G01*
X15000000Y-6610000D01*
G75*
G02*
X14935000Y-6675000I-65000J0D01*
G01*
G37*
G36*
G01*
X14935000Y-5725000D02*
X13865000Y-5725000D01*
G75*
G02*
X13800000Y-5660000I0J65000D01*
G01*
X13800000Y-5140000D01*
G75*
G02*
X13865000Y-5075000I65000J0D01*
G01*
X14935000Y-5075000D01*
G75*
G02*
X15000000Y-5140000I0J-65000D01*
G01*
X15000000Y-5660000D01*
G75*
G02*
X14935000Y-5725000I-65000J0D01*
G01*
G37*
G36*
G01*
X14935000Y-4775000D02*
X13865000Y-4775000D01*
G75*
G02*
X13800000Y-4710000I0J65000D01*
G01*
X13800000Y-4190000D01*
G75*
G02*
X13865000Y-4125000I65000J0D01*
G01*
X14935000Y-4125000D01*
G75*
G02*
X15000000Y-4190000I0J-65000D01*
G01*
X15000000Y-4710000D01*
G75*
G02*
X14935000Y-4775000I-65000J0D01*
G01*
G37*
G36*
G01*
X12135000Y-6675000D02*
X11065000Y-6675000D01*
G75*
G02*
X11000000Y-6610000I0J65000D01*
G01*
X11000000Y-6090000D01*
G75*
G02*
X11065000Y-6025000I65000J0D01*
G01*
X12135000Y-6025000D01*
G75*
G02*
X12200000Y-6090000I0J-65000D01*
G01*
X12200000Y-6610000D01*
G75*
G02*
X12135000Y-6675000I-65000J0D01*
G01*
G37*
G36*
G01*
X12135000Y-4775000D02*
X11065000Y-4775000D01*
G75*
G02*
X11000000Y-4710000I0J65000D01*
G01*
X11000000Y-4190000D01*
G75*
G02*
X11065000Y-4125000I65000J0D01*
G01*
X12135000Y-4125000D01*
G75*
G02*
X12200000Y-4190000I0J-65000D01*
G01*
X12200000Y-4710000D01*
G75*
G02*
X12135000Y-4775000I-65000J0D01*
G01*
G37*
G36*
G01*
X23800000Y-17730000D02*
X23800000Y-17970000D01*
G75*
G02*
X23770000Y-18000000I-30000J0D01*
G01*
X23180000Y-18000000D01*
G75*
G02*
X23150000Y-17970000I0J30000D01*
G01*
X23150000Y-17730000D01*
G75*
G02*
X23180000Y-17700000I30000J0D01*
G01*
X23770000Y-17700000D01*
G75*
G02*
X23800000Y-17730000I0J-30000D01*
G01*
G37*
G36*
G01*
X23800000Y-17080000D02*
X23800000Y-17320000D01*
G75*
G02*
X23770000Y-17350000I-30000J0D01*
G01*
X23180000Y-17350000D01*
G75*
G02*
X23150000Y-17320000I0J30000D01*
G01*
X23150000Y-17080000D01*
G75*
G02*
X23180000Y-17050000I30000J0D01*
G01*
X23770000Y-17050000D01*
G75*
G02*
X23800000Y-17080000I0J-30000D01*
G01*
G37*
G36*
G01*
X23800000Y-16430000D02*
X23800000Y-16670000D01*
G75*
G02*
X23770000Y-16700000I-30000J0D01*
G01*
X23180000Y-16700000D01*
G75*
G02*
X23150000Y-16670000I0J30000D01*
G01*
X23150000Y-16430000D01*
G75*
G02*
X23180000Y-16400000I30000J0D01*
G01*
X23770000Y-16400000D01*
G75*
G02*
X23800000Y-16430000I0J-30000D01*
G01*
G37*
G36*
G01*
X21650000Y-16430000D02*
X21650000Y-16670000D01*
G75*
G02*
X21620000Y-16700000I-30000J0D01*
G01*
X21030000Y-16700000D01*
G75*
G02*
X21000000Y-16670000I0J30000D01*
G01*
X21000000Y-16430000D01*
G75*
G02*
X21030000Y-16400000I30000J0D01*
G01*
X21620000Y-16400000D01*
G75*
G02*
X21650000Y-16430000I0J-30000D01*
G01*
G37*
G36*
G01*
X21650000Y-17080000D02*
X21650000Y-17320000D01*
G75*
G02*
X21620000Y-17350000I-30000J0D01*
G01*
X21030000Y-17350000D01*
G75*
G02*
X21000000Y-17320000I0J30000D01*
G01*
X21000000Y-17080000D01*
G75*
G02*
X21030000Y-17050000I30000J0D01*
G01*
X21620000Y-17050000D01*
G75*
G02*
X21650000Y-17080000I0J-30000D01*
G01*
G37*
G36*
G01*
X21650000Y-17730000D02*
X21650000Y-17970000D01*
G75*
G02*
X21620000Y-18000000I-30000J0D01*
G01*
X21030000Y-18000000D01*
G75*
G02*
X21000000Y-17970000I0J30000D01*
G01*
X21000000Y-17730000D01*
G75*
G02*
X21030000Y-17700000I30000J0D01*
G01*
X21620000Y-17700000D01*
G75*
G02*
X21650000Y-17730000I0J-30000D01*
G01*
G37*
G36*
G01*
X22800000Y-16480000D02*
X22800000Y-17920000D01*
G75*
G02*
X22720000Y-18000000I-80000J0D01*
G01*
X22080000Y-18000000D01*
G75*
G02*
X22000000Y-17920000I0J80000D01*
G01*
X22000000Y-16480000D01*
G75*
G02*
X22080000Y-16400000I80000J0D01*
G01*
X22720000Y-16400000D01*
G75*
G02*
X22800000Y-16480000I0J-80000D01*
G01*
G37*
D12*
X22400000Y-17600000D03*
X22400000Y-16800000D03*
G36*
G01*
X34060000Y-21975000D02*
X32740000Y-21975000D01*
G75*
G02*
X32700000Y-21935000I0J40000D01*
G01*
X32700000Y-21615000D01*
G75*
G02*
X32740000Y-21575000I40000J0D01*
G01*
X34060000Y-21575000D01*
G75*
G02*
X34100000Y-21615000I0J-40000D01*
G01*
X34100000Y-21935000D01*
G75*
G02*
X34060000Y-21975000I-40000J0D01*
G01*
G37*
G36*
G01*
X34060000Y-21325000D02*
X32740000Y-21325000D01*
G75*
G02*
X32700000Y-21285000I0J40000D01*
G01*
X32700000Y-20965000D01*
G75*
G02*
X32740000Y-20925000I40000J0D01*
G01*
X34060000Y-20925000D01*
G75*
G02*
X34100000Y-20965000I0J-40000D01*
G01*
X34100000Y-21285000D01*
G75*
G02*
X34060000Y-21325000I-40000J0D01*
G01*
G37*
G36*
G01*
X34060000Y-20675000D02*
X32740000Y-20675000D01*
G75*
G02*
X32700000Y-20635000I0J40000D01*
G01*
X32700000Y-20315000D01*
G75*
G02*
X32740000Y-20275000I40000J0D01*
G01*
X34060000Y-20275000D01*
G75*
G02*
X34100000Y-20315000I0J-40000D01*
G01*
X34100000Y-20635000D01*
G75*
G02*
X34060000Y-20675000I-40000J0D01*
G01*
G37*
G36*
G01*
X34060000Y-20025000D02*
X32740000Y-20025000D01*
G75*
G02*
X32700000Y-19985000I0J40000D01*
G01*
X32700000Y-19665000D01*
G75*
G02*
X32740000Y-19625000I40000J0D01*
G01*
X34060000Y-19625000D01*
G75*
G02*
X34100000Y-19665000I0J-40000D01*
G01*
X34100000Y-19985000D01*
G75*
G02*
X34060000Y-20025000I-40000J0D01*
G01*
G37*
G36*
G01*
X29260000Y-20025000D02*
X27940000Y-20025000D01*
G75*
G02*
X27900000Y-19985000I0J40000D01*
G01*
X27900000Y-19665000D01*
G75*
G02*
X27940000Y-19625000I40000J0D01*
G01*
X29260000Y-19625000D01*
G75*
G02*
X29300000Y-19665000I0J-40000D01*
G01*
X29300000Y-19985000D01*
G75*
G02*
X29260000Y-20025000I-40000J0D01*
G01*
G37*
G36*
G01*
X29260000Y-20675000D02*
X27940000Y-20675000D01*
G75*
G02*
X27900000Y-20635000I0J40000D01*
G01*
X27900000Y-20315000D01*
G75*
G02*
X27940000Y-20275000I40000J0D01*
G01*
X29260000Y-20275000D01*
G75*
G02*
X29300000Y-20315000I0J-40000D01*
G01*
X29300000Y-20635000D01*
G75*
G02*
X29260000Y-20675000I-40000J0D01*
G01*
G37*
G36*
G01*
X29260000Y-21325000D02*
X27940000Y-21325000D01*
G75*
G02*
X27900000Y-21285000I0J40000D01*
G01*
X27900000Y-20965000D01*
G75*
G02*
X27940000Y-20925000I40000J0D01*
G01*
X29260000Y-20925000D01*
G75*
G02*
X29300000Y-20965000I0J-40000D01*
G01*
X29300000Y-21285000D01*
G75*
G02*
X29260000Y-21325000I-40000J0D01*
G01*
G37*
G36*
G01*
X29260000Y-21975000D02*
X27940000Y-21975000D01*
G75*
G02*
X27900000Y-21935000I0J40000D01*
G01*
X27900000Y-21615000D01*
G75*
G02*
X27940000Y-21575000I40000J0D01*
G01*
X29260000Y-21575000D01*
G75*
G02*
X29300000Y-21615000I0J-40000D01*
G01*
X29300000Y-21935000D01*
G75*
G02*
X29260000Y-21975000I-40000J0D01*
G01*
G37*
G36*
G01*
X32865000Y-26425000D02*
X33935000Y-26425000D01*
G75*
G02*
X34000000Y-26490000I0J-65000D01*
G01*
X34000000Y-27010000D01*
G75*
G02*
X33935000Y-27075000I-65000J0D01*
G01*
X32865000Y-27075000D01*
G75*
G02*
X32800000Y-27010000I0J65000D01*
G01*
X32800000Y-26490000D01*
G75*
G02*
X32865000Y-26425000I65000J0D01*
G01*
G37*
G36*
G01*
X32865000Y-24525000D02*
X33935000Y-24525000D01*
G75*
G02*
X34000000Y-24590000I0J-65000D01*
G01*
X34000000Y-25110000D01*
G75*
G02*
X33935000Y-25175000I-65000J0D01*
G01*
X32865000Y-25175000D01*
G75*
G02*
X32800000Y-25110000I0J65000D01*
G01*
X32800000Y-24590000D01*
G75*
G02*
X32865000Y-24525000I65000J0D01*
G01*
G37*
G36*
G01*
X30065000Y-26425000D02*
X31135000Y-26425000D01*
G75*
G02*
X31200000Y-26490000I0J-65000D01*
G01*
X31200000Y-27010000D01*
G75*
G02*
X31135000Y-27075000I-65000J0D01*
G01*
X30065000Y-27075000D01*
G75*
G02*
X30000000Y-27010000I0J65000D01*
G01*
X30000000Y-26490000D01*
G75*
G02*
X30065000Y-26425000I65000J0D01*
G01*
G37*
G36*
G01*
X30065000Y-25475000D02*
X31135000Y-25475000D01*
G75*
G02*
X31200000Y-25540000I0J-65000D01*
G01*
X31200000Y-26060000D01*
G75*
G02*
X31135000Y-26125000I-65000J0D01*
G01*
X30065000Y-26125000D01*
G75*
G02*
X30000000Y-26060000I0J65000D01*
G01*
X30000000Y-25540000D01*
G75*
G02*
X30065000Y-25475000I65000J0D01*
G01*
G37*
G36*
G01*
X30065000Y-24525000D02*
X31135000Y-24525000D01*
G75*
G02*
X31200000Y-24590000I0J-65000D01*
G01*
X31200000Y-25110000D01*
G75*
G02*
X31135000Y-25175000I-65000J0D01*
G01*
X30065000Y-25175000D01*
G75*
G02*
X30000000Y-25110000I0J65000D01*
G01*
X30000000Y-24590000D01*
G75*
G02*
X30065000Y-24525000I65000J0D01*
G01*
G37*
G36*
G01*
X38265000Y-13325000D02*
X39335000Y-13325000D01*
G75*
G02*
X39400000Y-13390000I0J-65000D01*
G01*
X39400000Y-13910000D01*
G75*
G02*
X39335000Y-13975000I-65000J0D01*
G01*
X38265000Y-13975000D01*
G75*
G02*
X38200000Y-13910000I0J65000D01*
G01*
X38200000Y-13390000D01*
G75*
G02*
X38265000Y-13325000I65000J0D01*
G01*
G37*
G36*
G01*
X38265000Y-14275000D02*
X39335000Y-14275000D01*
G75*
G02*
X39400000Y-14340000I0J-65000D01*
G01*
X39400000Y-14860000D01*
G75*
G02*
X39335000Y-14925000I-65000J0D01*
G01*
X38265000Y-14925000D01*
G75*
G02*
X38200000Y-14860000I0J65000D01*
G01*
X38200000Y-14340000D01*
G75*
G02*
X38265000Y-14275000I65000J0D01*
G01*
G37*
G36*
G01*
X38265000Y-15225000D02*
X39335000Y-15225000D01*
G75*
G02*
X39400000Y-15290000I0J-65000D01*
G01*
X39400000Y-15810000D01*
G75*
G02*
X39335000Y-15875000I-65000J0D01*
G01*
X38265000Y-15875000D01*
G75*
G02*
X38200000Y-15810000I0J65000D01*
G01*
X38200000Y-15290000D01*
G75*
G02*
X38265000Y-15225000I65000J0D01*
G01*
G37*
G36*
G01*
X41065000Y-13325000D02*
X42135000Y-13325000D01*
G75*
G02*
X42200000Y-13390000I0J-65000D01*
G01*
X42200000Y-13910000D01*
G75*
G02*
X42135000Y-13975000I-65000J0D01*
G01*
X41065000Y-13975000D01*
G75*
G02*
X41000000Y-13910000I0J65000D01*
G01*
X41000000Y-13390000D01*
G75*
G02*
X41065000Y-13325000I65000J0D01*
G01*
G37*
G36*
G01*
X41065000Y-15225000D02*
X42135000Y-15225000D01*
G75*
G02*
X42200000Y-15290000I0J-65000D01*
G01*
X42200000Y-15810000D01*
G75*
G02*
X42135000Y-15875000I-65000J0D01*
G01*
X41065000Y-15875000D01*
G75*
G02*
X41000000Y-15810000I0J65000D01*
G01*
X41000000Y-15290000D01*
G75*
G02*
X41065000Y-15225000I65000J0D01*
G01*
G37*
G36*
G01*
X37110000Y-17975000D02*
X38290000Y-17975000D01*
G75*
G02*
X38325000Y-18010000I0J-35000D01*
G01*
X38325000Y-18290000D01*
G75*
G02*
X38290000Y-18325000I-35000J0D01*
G01*
X37110000Y-18325000D01*
G75*
G02*
X37075000Y-18290000I0J35000D01*
G01*
X37075000Y-18010000D01*
G75*
G02*
X37110000Y-17975000I35000J0D01*
G01*
G37*
G36*
G01*
X37110000Y-18625000D02*
X38290000Y-18625000D01*
G75*
G02*
X38325000Y-18660000I0J-35000D01*
G01*
X38325000Y-18940000D01*
G75*
G02*
X38290000Y-18975000I-35000J0D01*
G01*
X37110000Y-18975000D01*
G75*
G02*
X37075000Y-18940000I0J35000D01*
G01*
X37075000Y-18660000D01*
G75*
G02*
X37110000Y-18625000I35000J0D01*
G01*
G37*
G36*
G01*
X37110000Y-19275000D02*
X38290000Y-19275000D01*
G75*
G02*
X38325000Y-19310000I0J-35000D01*
G01*
X38325000Y-19590000D01*
G75*
G02*
X38290000Y-19625000I-35000J0D01*
G01*
X37110000Y-19625000D01*
G75*
G02*
X37075000Y-19590000I0J35000D01*
G01*
X37075000Y-19310000D01*
G75*
G02*
X37110000Y-19275000I35000J0D01*
G01*
G37*
G36*
G01*
X39310000Y-17975000D02*
X40490000Y-17975000D01*
G75*
G02*
X40525000Y-18010000I0J-35000D01*
G01*
X40525000Y-18290000D01*
G75*
G02*
X40490000Y-18325000I-35000J0D01*
G01*
X39310000Y-18325000D01*
G75*
G02*
X39275000Y-18290000I0J35000D01*
G01*
X39275000Y-18010000D01*
G75*
G02*
X39310000Y-17975000I35000J0D01*
G01*
G37*
G36*
G01*
X39310000Y-19275000D02*
X40490000Y-19275000D01*
G75*
G02*
X40525000Y-19310000I0J-35000D01*
G01*
X40525000Y-19590000D01*
G75*
G02*
X40490000Y-19625000I-35000J0D01*
G01*
X39310000Y-19625000D01*
G75*
G02*
X39275000Y-19590000I0J35000D01*
G01*
X39275000Y-19310000D01*
G75*
G02*
X39310000Y-19275000I35000J0D01*
G01*
G37*
G36*
G01*
X39310000Y-18625000D02*
X40490000Y-18625000D01*
G75*
G02*
X40525000Y-18660000I0J-35000D01*
G01*
X40525000Y-18940000D01*
G75*
G02*
X40490000Y-18975000I-35000J0D01*
G01*
X39310000Y-18975000D01*
G75*
G02*
X39275000Y-18940000I0J35000D01*
G01*
X39275000Y-18660000D01*
G75*
G02*
X39310000Y-18625000I35000J0D01*
G01*
G37*
G36*
G01*
X2925000Y-21535000D02*
X2925000Y-20465000D01*
G75*
G02*
X2990000Y-20400000I65000J0D01*
G01*
X3510000Y-20400000D01*
G75*
G02*
X3575000Y-20465000I0J-65000D01*
G01*
X3575000Y-21535000D01*
G75*
G02*
X3510000Y-21600000I-65000J0D01*
G01*
X2990000Y-21600000D01*
G75*
G02*
X2925000Y-21535000I0J65000D01*
G01*
G37*
G36*
G01*
X3875000Y-21535000D02*
X3875000Y-20465000D01*
G75*
G02*
X3940000Y-20400000I65000J0D01*
G01*
X4460000Y-20400000D01*
G75*
G02*
X4525000Y-20465000I0J-65000D01*
G01*
X4525000Y-21535000D01*
G75*
G02*
X4460000Y-21600000I-65000J0D01*
G01*
X3940000Y-21600000D01*
G75*
G02*
X3875000Y-21535000I0J65000D01*
G01*
G37*
G36*
G01*
X4825000Y-21535000D02*
X4825000Y-20465000D01*
G75*
G02*
X4890000Y-20400000I65000J0D01*
G01*
X5410000Y-20400000D01*
G75*
G02*
X5475000Y-20465000I0J-65000D01*
G01*
X5475000Y-21535000D01*
G75*
G02*
X5410000Y-21600000I-65000J0D01*
G01*
X4890000Y-21600000D01*
G75*
G02*
X4825000Y-21535000I0J65000D01*
G01*
G37*
G36*
G01*
X2925000Y-18735000D02*
X2925000Y-17665000D01*
G75*
G02*
X2990000Y-17600000I65000J0D01*
G01*
X3510000Y-17600000D01*
G75*
G02*
X3575000Y-17665000I0J-65000D01*
G01*
X3575000Y-18735000D01*
G75*
G02*
X3510000Y-18800000I-65000J0D01*
G01*
X2990000Y-18800000D01*
G75*
G02*
X2925000Y-18735000I0J65000D01*
G01*
G37*
G36*
G01*
X4825000Y-18735000D02*
X4825000Y-17665000D01*
G75*
G02*
X4890000Y-17600000I65000J0D01*
G01*
X5410000Y-17600000D01*
G75*
G02*
X5475000Y-17665000I0J-65000D01*
G01*
X5475000Y-18735000D01*
G75*
G02*
X5410000Y-18800000I-65000J0D01*
G01*
X4890000Y-18800000D01*
G75*
G02*
X4825000Y-18735000I0J65000D01*
G01*
G37*
D13*
X1600000Y-7325000D03*
X1600000Y-1875000D03*
D14*
X1350000Y-5562500D03*
X1350000Y-3637500D03*
D15*
X4425000Y-5900000D03*
X4425000Y-5250000D03*
X4425000Y-4600000D03*
X4425000Y-3950000D03*
X4425000Y-3300000D03*
G36*
G01*
X41320000Y-3850000D02*
X40680000Y-3850000D01*
G75*
G02*
X40600000Y-3770000I0J80000D01*
G01*
X40600000Y-2830000D01*
G75*
G02*
X40680000Y-2750000I80000J0D01*
G01*
X41320000Y-2750000D01*
G75*
G02*
X41400000Y-2830000I0J-80000D01*
G01*
X41400000Y-3770000D01*
G75*
G02*
X41320000Y-3850000I-80000J0D01*
G01*
G37*
G36*
G01*
X41320000Y-2050000D02*
X40680000Y-2050000D01*
G75*
G02*
X40600000Y-1970000I0J80000D01*
G01*
X40600000Y-1030000D01*
G75*
G02*
X40680000Y-950000I80000J0D01*
G01*
X41320000Y-950000D01*
G75*
G02*
X41400000Y-1030000I0J-80000D01*
G01*
X41400000Y-1970000D01*
G75*
G02*
X41320000Y-2050000I-80000J0D01*
G01*
G37*
D16*
X18070000Y-9460000D03*
X15530000Y-9460000D03*
X18070000Y-12000000D03*
X15530000Y-12000000D03*
X18070000Y-14540000D03*
X15530000Y-14540000D03*
D17*
X7400000Y-29900000D03*
X14300000Y-29900000D03*
G36*
G01*
X10885000Y-24950000D02*
X11715000Y-24950000D01*
G75*
G02*
X11850000Y-25085000I0J-135000D01*
G01*
X11850000Y-25715000D01*
G75*
G02*
X11715000Y-25850000I-135000J0D01*
G01*
X10885000Y-25850000D01*
G75*
G02*
X10750000Y-25715000I0J135000D01*
G01*
X10750000Y-25085000D01*
G75*
G02*
X10885000Y-24950000I135000J0D01*
G01*
G37*
G36*
G01*
X8685000Y-25900000D02*
X9515000Y-25900000D01*
G75*
G02*
X9650000Y-26035000I0J-135000D01*
G01*
X9650000Y-26665000D01*
G75*
G02*
X9515000Y-26800000I-135000J0D01*
G01*
X8685000Y-26800000D01*
G75*
G02*
X8550000Y-26665000I0J135000D01*
G01*
X8550000Y-26035000D01*
G75*
G02*
X8685000Y-25900000I135000J0D01*
G01*
G37*
G36*
G01*
X8685000Y-24000000D02*
X9515000Y-24000000D01*
G75*
G02*
X9650000Y-24135000I0J-135000D01*
G01*
X9650000Y-24765000D01*
G75*
G02*
X9515000Y-24900000I-135000J0D01*
G01*
X8685000Y-24900000D01*
G75*
G02*
X8550000Y-24765000I0J135000D01*
G01*
X8550000Y-24135000D01*
G75*
G02*
X8685000Y-24000000I135000J0D01*
G01*
G37*
G36*
G01*
X13150000Y-25900000D02*
X12150000Y-25900000D01*
G75*
G02*
X12050000Y-25800000I0J100000D01*
G01*
X12050000Y-25000000D01*
G75*
G02*
X12150000Y-24900000I100000J0D01*
G01*
X13150000Y-24900000D01*
G75*
G02*
X13250000Y-25000000I0J-100000D01*
G01*
X13250000Y-25800000D01*
G75*
G02*
X13150000Y-25900000I-100000J0D01*
G01*
G37*
G36*
G01*
X15450000Y-24950000D02*
X14450000Y-24950000D01*
G75*
G02*
X14350000Y-24850000I0J100000D01*
G01*
X14350000Y-24050000D01*
G75*
G02*
X14450000Y-23950000I100000J0D01*
G01*
X15450000Y-23950000D01*
G75*
G02*
X15550000Y-24050000I0J-100000D01*
G01*
X15550000Y-24850000D01*
G75*
G02*
X15450000Y-24950000I-100000J0D01*
G01*
G37*
G36*
G01*
X15450000Y-26850000D02*
X14450000Y-26850000D01*
G75*
G02*
X14350000Y-26750000I0J100000D01*
G01*
X14350000Y-25950000D01*
G75*
G02*
X14450000Y-25850000I100000J0D01*
G01*
X15450000Y-25850000D01*
G75*
G02*
X15550000Y-25950000I0J-100000D01*
G01*
X15550000Y-26750000D01*
G75*
G02*
X15450000Y-26850000I-100000J0D01*
G01*
G37*
G36*
G01*
X10050000Y-23450000D02*
X9050000Y-23450000D01*
G75*
G02*
X8950000Y-23350000I0J100000D01*
G01*
X8950000Y-22550000D01*
G75*
G02*
X9050000Y-22450000I100000J0D01*
G01*
X10050000Y-22450000D01*
G75*
G02*
X10150000Y-22550000I0J-100000D01*
G01*
X10150000Y-23350000D01*
G75*
G02*
X10050000Y-23450000I-100000J0D01*
G01*
G37*
G36*
G01*
X10050000Y-21550000D02*
X9050000Y-21550000D01*
G75*
G02*
X8950000Y-21450000I0J100000D01*
G01*
X8950000Y-20650000D01*
G75*
G02*
X9050000Y-20550000I100000J0D01*
G01*
X10050000Y-20550000D01*
G75*
G02*
X10150000Y-20650000I0J-100000D01*
G01*
X10150000Y-21450000D01*
G75*
G02*
X10050000Y-21550000I-100000J0D01*
G01*
G37*
G36*
G01*
X7750000Y-22500000D02*
X6750000Y-22500000D01*
G75*
G02*
X6650000Y-22400000I0J100000D01*
G01*
X6650000Y-21600000D01*
G75*
G02*
X6750000Y-21500000I100000J0D01*
G01*
X7750000Y-21500000D01*
G75*
G02*
X7850000Y-21600000I0J-100000D01*
G01*
X7850000Y-22400000D01*
G75*
G02*
X7750000Y-22500000I-100000J0D01*
G01*
G37*
G36*
G01*
X20885000Y-24000000D02*
X21715000Y-24000000D01*
G75*
G02*
X21850000Y-24135000I0J-135000D01*
G01*
X21850000Y-24765000D01*
G75*
G02*
X21715000Y-24900000I-135000J0D01*
G01*
X20885000Y-24900000D01*
G75*
G02*
X20750000Y-24765000I0J135000D01*
G01*
X20750000Y-24135000D01*
G75*
G02*
X20885000Y-24000000I135000J0D01*
G01*
G37*
G36*
G01*
X20885000Y-25900000D02*
X21715000Y-25900000D01*
G75*
G02*
X21850000Y-26035000I0J-135000D01*
G01*
X21850000Y-26665000D01*
G75*
G02*
X21715000Y-26800000I-135000J0D01*
G01*
X20885000Y-26800000D01*
G75*
G02*
X20750000Y-26665000I0J135000D01*
G01*
X20750000Y-26035000D01*
G75*
G02*
X20885000Y-25900000I135000J0D01*
G01*
G37*
G36*
G01*
X23085000Y-24950000D02*
X23915000Y-24950000D01*
G75*
G02*
X24050000Y-25085000I0J-135000D01*
G01*
X24050000Y-25715000D01*
G75*
G02*
X23915000Y-25850000I-135000J0D01*
G01*
X23085000Y-25850000D01*
G75*
G02*
X22950000Y-25715000I0J135000D01*
G01*
X22950000Y-25085000D01*
G75*
G02*
X23085000Y-24950000I135000J0D01*
G01*
G37*
G36*
G01*
X38150000Y-30100000D02*
X37150000Y-30100000D01*
G75*
G02*
X37050000Y-30000000I0J100000D01*
G01*
X37050000Y-29200000D01*
G75*
G02*
X37150000Y-29100000I100000J0D01*
G01*
X38150000Y-29100000D01*
G75*
G02*
X38250000Y-29200000I0J-100000D01*
G01*
X38250000Y-30000000D01*
G75*
G02*
X38150000Y-30100000I-100000J0D01*
G01*
G37*
G36*
G01*
X40450000Y-29150000D02*
X39450000Y-29150000D01*
G75*
G02*
X39350000Y-29050000I0J100000D01*
G01*
X39350000Y-28250000D01*
G75*
G02*
X39450000Y-28150000I100000J0D01*
G01*
X40450000Y-28150000D01*
G75*
G02*
X40550000Y-28250000I0J-100000D01*
G01*
X40550000Y-29050000D01*
G75*
G02*
X40450000Y-29150000I-100000J0D01*
G01*
G37*
G36*
G01*
X40450000Y-31050000D02*
X39450000Y-31050000D01*
G75*
G02*
X39350000Y-30950000I0J100000D01*
G01*
X39350000Y-30150000D01*
G75*
G02*
X39450000Y-30050000I100000J0D01*
G01*
X40450000Y-30050000D01*
G75*
G02*
X40550000Y-30150000I0J-100000D01*
G01*
X40550000Y-30950000D01*
G75*
G02*
X40450000Y-31050000I-100000J0D01*
G01*
G37*
G36*
G01*
X22250000Y-23450000D02*
X21250000Y-23450000D01*
G75*
G02*
X21150000Y-23350000I0J100000D01*
G01*
X21150000Y-22550000D01*
G75*
G02*
X21250000Y-22450000I100000J0D01*
G01*
X22250000Y-22450000D01*
G75*
G02*
X22350000Y-22550000I0J-100000D01*
G01*
X22350000Y-23350000D01*
G75*
G02*
X22250000Y-23450000I-100000J0D01*
G01*
G37*
G36*
G01*
X22250000Y-21550000D02*
X21250000Y-21550000D01*
G75*
G02*
X21150000Y-21450000I0J100000D01*
G01*
X21150000Y-20650000D01*
G75*
G02*
X21250000Y-20550000I100000J0D01*
G01*
X22250000Y-20550000D01*
G75*
G02*
X22350000Y-20650000I0J-100000D01*
G01*
X22350000Y-21450000D01*
G75*
G02*
X22250000Y-21550000I-100000J0D01*
G01*
G37*
G36*
G01*
X19950000Y-22500000D02*
X18950000Y-22500000D01*
G75*
G02*
X18850000Y-22400000I0J100000D01*
G01*
X18850000Y-21600000D01*
G75*
G02*
X18950000Y-21500000I100000J0D01*
G01*
X19950000Y-21500000D01*
G75*
G02*
X20050000Y-21600000I0J-100000D01*
G01*
X20050000Y-22400000D01*
G75*
G02*
X19950000Y-22500000I-100000J0D01*
G01*
G37*
G36*
G01*
X27850000Y-26850000D02*
X26850000Y-26850000D01*
G75*
G02*
X26750000Y-26750000I0J100000D01*
G01*
X26750000Y-25950000D01*
G75*
G02*
X26850000Y-25850000I100000J0D01*
G01*
X27850000Y-25850000D01*
G75*
G02*
X27950000Y-25950000I0J-100000D01*
G01*
X27950000Y-26750000D01*
G75*
G02*
X27850000Y-26850000I-100000J0D01*
G01*
G37*
G36*
G01*
X27850000Y-24950000D02*
X26850000Y-24950000D01*
G75*
G02*
X26750000Y-24850000I0J100000D01*
G01*
X26750000Y-24050000D01*
G75*
G02*
X26850000Y-23950000I100000J0D01*
G01*
X27850000Y-23950000D01*
G75*
G02*
X27950000Y-24050000I0J-100000D01*
G01*
X27950000Y-24850000D01*
G75*
G02*
X27850000Y-24950000I-100000J0D01*
G01*
G37*
G36*
G01*
X25550000Y-25900000D02*
X24550000Y-25900000D01*
G75*
G02*
X24450000Y-25800000I0J100000D01*
G01*
X24450000Y-25000000D01*
G75*
G02*
X24550000Y-24900000I100000J0D01*
G01*
X25550000Y-24900000D01*
G75*
G02*
X25650000Y-25000000I0J-100000D01*
G01*
X25650000Y-25800000D01*
G75*
G02*
X25550000Y-25900000I-100000J0D01*
G01*
G37*
G36*
G01*
X40450000Y-25050000D02*
X39450000Y-25050000D01*
G75*
G02*
X39350000Y-24950000I0J100000D01*
G01*
X39350000Y-24150000D01*
G75*
G02*
X39450000Y-24050000I100000J0D01*
G01*
X40450000Y-24050000D01*
G75*
G02*
X40550000Y-24150000I0J-100000D01*
G01*
X40550000Y-24950000D01*
G75*
G02*
X40450000Y-25050000I-100000J0D01*
G01*
G37*
G36*
G01*
X40450000Y-23150000D02*
X39450000Y-23150000D01*
G75*
G02*
X39350000Y-23050000I0J100000D01*
G01*
X39350000Y-22250000D01*
G75*
G02*
X39450000Y-22150000I100000J0D01*
G01*
X40450000Y-22150000D01*
G75*
G02*
X40550000Y-22250000I0J-100000D01*
G01*
X40550000Y-23050000D01*
G75*
G02*
X40450000Y-23150000I-100000J0D01*
G01*
G37*
G36*
G01*
X38150000Y-24100000D02*
X37150000Y-24100000D01*
G75*
G02*
X37050000Y-24000000I0J100000D01*
G01*
X37050000Y-23200000D01*
G75*
G02*
X37150000Y-23100000I100000J0D01*
G01*
X38150000Y-23100000D01*
G75*
G02*
X38250000Y-23200000I0J-100000D01*
G01*
X38250000Y-24000000D01*
G75*
G02*
X38150000Y-24100000I-100000J0D01*
G01*
G37*
G36*
G01*
X19955000Y-2000000D02*
X20445000Y-2000000D01*
G75*
G02*
X20550000Y-2105000I0J-105000D01*
G01*
X20550000Y-2695000D01*
G75*
G02*
X20445000Y-2800000I-105000J0D01*
G01*
X19955000Y-2800000D01*
G75*
G02*
X19850000Y-2695000I0J105000D01*
G01*
X19850000Y-2105000D01*
G75*
G02*
X19955000Y-2000000I105000J0D01*
G01*
G37*
G36*
G01*
X19955000Y-3200000D02*
X20445000Y-3200000D01*
G75*
G02*
X20550000Y-3305000I0J-105000D01*
G01*
X20550000Y-3895000D01*
G75*
G02*
X20445000Y-4000000I-105000J0D01*
G01*
X19955000Y-4000000D01*
G75*
G02*
X19850000Y-3895000I0J105000D01*
G01*
X19850000Y-3305000D01*
G75*
G02*
X19955000Y-3200000I105000J0D01*
G01*
G37*
G36*
G01*
X21155000Y-2000000D02*
X21645000Y-2000000D01*
G75*
G02*
X21750000Y-2105000I0J-105000D01*
G01*
X21750000Y-2695000D01*
G75*
G02*
X21645000Y-2800000I-105000J0D01*
G01*
X21155000Y-2800000D01*
G75*
G02*
X21050000Y-2695000I0J105000D01*
G01*
X21050000Y-2105000D01*
G75*
G02*
X21155000Y-2000000I105000J0D01*
G01*
G37*
G36*
G01*
X21155000Y-3200000D02*
X21645000Y-3200000D01*
G75*
G02*
X21750000Y-3305000I0J-105000D01*
G01*
X21750000Y-3895000D01*
G75*
G02*
X21645000Y-4000000I-105000J0D01*
G01*
X21155000Y-4000000D01*
G75*
G02*
X21050000Y-3895000I0J105000D01*
G01*
X21050000Y-3305000D01*
G75*
G02*
X21155000Y-3200000I105000J0D01*
G01*
G37*
G36*
G01*
X9755000Y-6800000D02*
X10245000Y-6800000D01*
G75*
G02*
X10350000Y-6905000I0J-105000D01*
G01*
X10350000Y-7495000D01*
G75*
G02*
X10245000Y-7600000I-105000J0D01*
G01*
X9755000Y-7600000D01*
G75*
G02*
X9650000Y-7495000I0J105000D01*
G01*
X9650000Y-6905000D01*
G75*
G02*
X9755000Y-6800000I105000J0D01*
G01*
G37*
G36*
G01*
X9755000Y-5600000D02*
X10245000Y-5600000D01*
G75*
G02*
X10350000Y-5705000I0J-105000D01*
G01*
X10350000Y-6295000D01*
G75*
G02*
X10245000Y-6400000I-105000J0D01*
G01*
X9755000Y-6400000D01*
G75*
G02*
X9650000Y-6295000I0J105000D01*
G01*
X9650000Y-5705000D01*
G75*
G02*
X9755000Y-5600000I105000J0D01*
G01*
G37*
G36*
G01*
X21155000Y-5600000D02*
X21645000Y-5600000D01*
G75*
G02*
X21750000Y-5705000I0J-105000D01*
G01*
X21750000Y-6295000D01*
G75*
G02*
X21645000Y-6400000I-105000J0D01*
G01*
X21155000Y-6400000D01*
G75*
G02*
X21050000Y-6295000I0J105000D01*
G01*
X21050000Y-5705000D01*
G75*
G02*
X21155000Y-5600000I105000J0D01*
G01*
G37*
G36*
G01*
X21155000Y-4400000D02*
X21645000Y-4400000D01*
G75*
G02*
X21750000Y-4505000I0J-105000D01*
G01*
X21750000Y-5095000D01*
G75*
G02*
X21645000Y-5200000I-105000J0D01*
G01*
X21155000Y-5200000D01*
G75*
G02*
X21050000Y-5095000I0J105000D01*
G01*
X21050000Y-4505000D01*
G75*
G02*
X21155000Y-4400000I105000J0D01*
G01*
G37*
G36*
G01*
X21100000Y-9745000D02*
X21100000Y-9255000D01*
G75*
G02*
X21205000Y-9150000I105000J0D01*
G01*
X21795000Y-9150000D01*
G75*
G02*
X21900000Y-9255000I0J-105000D01*
G01*
X21900000Y-9745000D01*
G75*
G02*
X21795000Y-9850000I-105000J0D01*
G01*
X21205000Y-9850000D01*
G75*
G02*
X21100000Y-9745000I0J105000D01*
G01*
G37*
G36*
G01*
X19900000Y-9745000D02*
X19900000Y-9255000D01*
G75*
G02*
X20005000Y-9150000I105000J0D01*
G01*
X20595000Y-9150000D01*
G75*
G02*
X20700000Y-9255000I0J-105000D01*
G01*
X20700000Y-9745000D01*
G75*
G02*
X20595000Y-9850000I-105000J0D01*
G01*
X20005000Y-9850000D01*
G75*
G02*
X19900000Y-9745000I0J105000D01*
G01*
G37*
G36*
G01*
X19900000Y-10945000D02*
X19900000Y-10455000D01*
G75*
G02*
X20005000Y-10350000I105000J0D01*
G01*
X20595000Y-10350000D01*
G75*
G02*
X20700000Y-10455000I0J-105000D01*
G01*
X20700000Y-10945000D01*
G75*
G02*
X20595000Y-11050000I-105000J0D01*
G01*
X20005000Y-11050000D01*
G75*
G02*
X19900000Y-10945000I0J105000D01*
G01*
G37*
G36*
G01*
X21100000Y-10945000D02*
X21100000Y-10455000D01*
G75*
G02*
X21205000Y-10350000I105000J0D01*
G01*
X21795000Y-10350000D01*
G75*
G02*
X21900000Y-10455000I0J-105000D01*
G01*
X21900000Y-10945000D01*
G75*
G02*
X21795000Y-11050000I-105000J0D01*
G01*
X21205000Y-11050000D01*
G75*
G02*
X21100000Y-10945000I0J105000D01*
G01*
G37*
G36*
G01*
X21100000Y-12145000D02*
X21100000Y-11655000D01*
G75*
G02*
X21205000Y-11550000I105000J0D01*
G01*
X21795000Y-11550000D01*
G75*
G02*
X21900000Y-11655000I0J-105000D01*
G01*
X21900000Y-12145000D01*
G75*
G02*
X21795000Y-12250000I-105000J0D01*
G01*
X21205000Y-12250000D01*
G75*
G02*
X21100000Y-12145000I0J105000D01*
G01*
G37*
G36*
G01*
X19900000Y-12145000D02*
X19900000Y-11655000D01*
G75*
G02*
X20005000Y-11550000I105000J0D01*
G01*
X20595000Y-11550000D01*
G75*
G02*
X20700000Y-11655000I0J-105000D01*
G01*
X20700000Y-12145000D01*
G75*
G02*
X20595000Y-12250000I-105000J0D01*
G01*
X20005000Y-12250000D01*
G75*
G02*
X19900000Y-12145000I0J105000D01*
G01*
G37*
G36*
G01*
X5800000Y-23855000D02*
X5800000Y-24345000D01*
G75*
G02*
X5695000Y-24450000I-105000J0D01*
G01*
X5105000Y-24450000D01*
G75*
G02*
X5000000Y-24345000I0J105000D01*
G01*
X5000000Y-23855000D01*
G75*
G02*
X5105000Y-23750000I105000J0D01*
G01*
X5695000Y-23750000D01*
G75*
G02*
X5800000Y-23855000I0J-105000D01*
G01*
G37*
G36*
G01*
X4600000Y-23855000D02*
X4600000Y-24345000D01*
G75*
G02*
X4495000Y-24450000I-105000J0D01*
G01*
X3905000Y-24450000D01*
G75*
G02*
X3800000Y-24345000I0J105000D01*
G01*
X3800000Y-23855000D01*
G75*
G02*
X3905000Y-23750000I105000J0D01*
G01*
X4495000Y-23750000D01*
G75*
G02*
X4600000Y-23855000I0J-105000D01*
G01*
G37*
G36*
G01*
X39355000Y-800000D02*
X39845000Y-800000D01*
G75*
G02*
X39950000Y-905000I0J-105000D01*
G01*
X39950000Y-1495000D01*
G75*
G02*
X39845000Y-1600000I-105000J0D01*
G01*
X39355000Y-1600000D01*
G75*
G02*
X39250000Y-1495000I0J105000D01*
G01*
X39250000Y-905000D01*
G75*
G02*
X39355000Y-800000I105000J0D01*
G01*
G37*
G36*
G01*
X39355000Y-2000000D02*
X39845000Y-2000000D01*
G75*
G02*
X39950000Y-2105000I0J-105000D01*
G01*
X39950000Y-2695000D01*
G75*
G02*
X39845000Y-2800000I-105000J0D01*
G01*
X39355000Y-2800000D01*
G75*
G02*
X39250000Y-2695000I0J105000D01*
G01*
X39250000Y-2105000D01*
G75*
G02*
X39355000Y-2000000I105000J0D01*
G01*
G37*
G36*
G01*
X1160000Y-23045000D02*
X1160000Y-22555000D01*
G75*
G02*
X1265000Y-22450000I105000J0D01*
G01*
X1855000Y-22450000D01*
G75*
G02*
X1960000Y-22555000I0J-105000D01*
G01*
X1960000Y-23045000D01*
G75*
G02*
X1855000Y-23150000I-105000J0D01*
G01*
X1265000Y-23150000D01*
G75*
G02*
X1160000Y-23045000I0J105000D01*
G01*
G37*
G36*
G01*
X2360000Y-23045000D02*
X2360000Y-22555000D01*
G75*
G02*
X2465000Y-22450000I105000J0D01*
G01*
X3055000Y-22450000D01*
G75*
G02*
X3160000Y-22555000I0J-105000D01*
G01*
X3160000Y-23045000D01*
G75*
G02*
X3055000Y-23150000I-105000J0D01*
G01*
X2465000Y-23150000D01*
G75*
G02*
X2360000Y-23045000I0J105000D01*
G01*
G37*
G36*
G01*
X13445000Y-23400000D02*
X12955000Y-23400000D01*
G75*
G02*
X12850000Y-23295000I0J105000D01*
G01*
X12850000Y-22705000D01*
G75*
G02*
X12955000Y-22600000I105000J0D01*
G01*
X13445000Y-22600000D01*
G75*
G02*
X13550000Y-22705000I0J-105000D01*
G01*
X13550000Y-23295000D01*
G75*
G02*
X13445000Y-23400000I-105000J0D01*
G01*
G37*
G36*
G01*
X13445000Y-22200000D02*
X12955000Y-22200000D01*
G75*
G02*
X12850000Y-22095000I0J105000D01*
G01*
X12850000Y-21505000D01*
G75*
G02*
X12955000Y-21400000I105000J0D01*
G01*
X13445000Y-21400000D01*
G75*
G02*
X13550000Y-21505000I0J-105000D01*
G01*
X13550000Y-22095000D01*
G75*
G02*
X13445000Y-22200000I-105000J0D01*
G01*
G37*
G36*
G01*
X12245000Y-22200000D02*
X11755000Y-22200000D01*
G75*
G02*
X11650000Y-22095000I0J105000D01*
G01*
X11650000Y-21505000D01*
G75*
G02*
X11755000Y-21400000I105000J0D01*
G01*
X12245000Y-21400000D01*
G75*
G02*
X12350000Y-21505000I0J-105000D01*
G01*
X12350000Y-22095000D01*
G75*
G02*
X12245000Y-22200000I-105000J0D01*
G01*
G37*
G36*
G01*
X12245000Y-23400000D02*
X11755000Y-23400000D01*
G75*
G02*
X11650000Y-23295000I0J105000D01*
G01*
X11650000Y-22705000D01*
G75*
G02*
X11755000Y-22600000I105000J0D01*
G01*
X12245000Y-22600000D01*
G75*
G02*
X12350000Y-22705000I0J-105000D01*
G01*
X12350000Y-23295000D01*
G75*
G02*
X12245000Y-23400000I-105000J0D01*
G01*
G37*
G36*
G01*
X2360000Y-24245000D02*
X2360000Y-23755000D01*
G75*
G02*
X2465000Y-23650000I105000J0D01*
G01*
X3055000Y-23650000D01*
G75*
G02*
X3160000Y-23755000I0J-105000D01*
G01*
X3160000Y-24245000D01*
G75*
G02*
X3055000Y-24350000I-105000J0D01*
G01*
X2465000Y-24350000D01*
G75*
G02*
X2360000Y-24245000I0J105000D01*
G01*
G37*
G36*
G01*
X1160000Y-24245000D02*
X1160000Y-23755000D01*
G75*
G02*
X1265000Y-23650000I105000J0D01*
G01*
X1855000Y-23650000D01*
G75*
G02*
X1960000Y-23755000I0J-105000D01*
G01*
X1960000Y-24245000D01*
G75*
G02*
X1855000Y-24350000I-105000J0D01*
G01*
X1265000Y-24350000D01*
G75*
G02*
X1160000Y-24245000I0J105000D01*
G01*
G37*
G36*
G01*
X4400000Y-22555000D02*
X4400000Y-23045000D01*
G75*
G02*
X4295000Y-23150000I-105000J0D01*
G01*
X3705000Y-23150000D01*
G75*
G02*
X3600000Y-23045000I0J105000D01*
G01*
X3600000Y-22555000D01*
G75*
G02*
X3705000Y-22450000I105000J0D01*
G01*
X4295000Y-22450000D01*
G75*
G02*
X4400000Y-22555000I0J-105000D01*
G01*
G37*
G36*
G01*
X5600000Y-22555000D02*
X5600000Y-23045000D01*
G75*
G02*
X5495000Y-23150000I-105000J0D01*
G01*
X4905000Y-23150000D01*
G75*
G02*
X4800000Y-23045000I0J105000D01*
G01*
X4800000Y-22555000D01*
G75*
G02*
X4905000Y-22450000I105000J0D01*
G01*
X5495000Y-22450000D01*
G75*
G02*
X5600000Y-22555000I0J-105000D01*
G01*
G37*
G36*
G01*
X14155000Y-22600000D02*
X14645000Y-22600000D01*
G75*
G02*
X14750000Y-22705000I0J-105000D01*
G01*
X14750000Y-23295000D01*
G75*
G02*
X14645000Y-23400000I-105000J0D01*
G01*
X14155000Y-23400000D01*
G75*
G02*
X14050000Y-23295000I0J105000D01*
G01*
X14050000Y-22705000D01*
G75*
G02*
X14155000Y-22600000I105000J0D01*
G01*
G37*
G36*
G01*
X14155000Y-21400000D02*
X14645000Y-21400000D01*
G75*
G02*
X14750000Y-21505000I0J-105000D01*
G01*
X14750000Y-22095000D01*
G75*
G02*
X14645000Y-22200000I-105000J0D01*
G01*
X14155000Y-22200000D01*
G75*
G02*
X14050000Y-22095000I0J105000D01*
G01*
X14050000Y-21505000D01*
G75*
G02*
X14155000Y-21400000I105000J0D01*
G01*
G37*
G36*
G01*
X11045000Y-22200000D02*
X10555000Y-22200000D01*
G75*
G02*
X10450000Y-22095000I0J105000D01*
G01*
X10450000Y-21505000D01*
G75*
G02*
X10555000Y-21400000I105000J0D01*
G01*
X11045000Y-21400000D01*
G75*
G02*
X11150000Y-21505000I0J-105000D01*
G01*
X11150000Y-22095000D01*
G75*
G02*
X11045000Y-22200000I-105000J0D01*
G01*
G37*
G36*
G01*
X11045000Y-23400000D02*
X10555000Y-23400000D01*
G75*
G02*
X10450000Y-23295000I0J105000D01*
G01*
X10450000Y-22705000D01*
G75*
G02*
X10555000Y-22600000I105000J0D01*
G01*
X11045000Y-22600000D01*
G75*
G02*
X11150000Y-22705000I0J-105000D01*
G01*
X11150000Y-23295000D01*
G75*
G02*
X11045000Y-23400000I-105000J0D01*
G01*
G37*
G36*
G01*
X35600000Y-25045000D02*
X35600000Y-24555000D01*
G75*
G02*
X35705000Y-24450000I105000J0D01*
G01*
X36295000Y-24450000D01*
G75*
G02*
X36400000Y-24555000I0J-105000D01*
G01*
X36400000Y-25045000D01*
G75*
G02*
X36295000Y-25150000I-105000J0D01*
G01*
X35705000Y-25150000D01*
G75*
G02*
X35600000Y-25045000I0J105000D01*
G01*
G37*
G36*
G01*
X34400000Y-25045000D02*
X34400000Y-24555000D01*
G75*
G02*
X34505000Y-24450000I105000J0D01*
G01*
X35095000Y-24450000D01*
G75*
G02*
X35200000Y-24555000I0J-105000D01*
G01*
X35200000Y-25045000D01*
G75*
G02*
X35095000Y-25150000I-105000J0D01*
G01*
X34505000Y-25150000D01*
G75*
G02*
X34400000Y-25045000I0J105000D01*
G01*
G37*
G36*
G01*
X36400000Y-25755000D02*
X36400000Y-26245000D01*
G75*
G02*
X36295000Y-26350000I-105000J0D01*
G01*
X35705000Y-26350000D01*
G75*
G02*
X35600000Y-26245000I0J105000D01*
G01*
X35600000Y-25755000D01*
G75*
G02*
X35705000Y-25650000I105000J0D01*
G01*
X36295000Y-25650000D01*
G75*
G02*
X36400000Y-25755000I0J-105000D01*
G01*
G37*
G36*
G01*
X35200000Y-25755000D02*
X35200000Y-26245000D01*
G75*
G02*
X35095000Y-26350000I-105000J0D01*
G01*
X34505000Y-26350000D01*
G75*
G02*
X34400000Y-26245000I0J105000D01*
G01*
X34400000Y-25755000D01*
G75*
G02*
X34505000Y-25650000I105000J0D01*
G01*
X35095000Y-25650000D01*
G75*
G02*
X35200000Y-25755000I0J-105000D01*
G01*
G37*
G36*
G01*
X35200000Y-23355000D02*
X35200000Y-23845000D01*
G75*
G02*
X35095000Y-23950000I-105000J0D01*
G01*
X34505000Y-23950000D01*
G75*
G02*
X34400000Y-23845000I0J105000D01*
G01*
X34400000Y-23355000D01*
G75*
G02*
X34505000Y-23250000I105000J0D01*
G01*
X35095000Y-23250000D01*
G75*
G02*
X35200000Y-23355000I0J-105000D01*
G01*
G37*
G36*
G01*
X36400000Y-23355000D02*
X36400000Y-23845000D01*
G75*
G02*
X36295000Y-23950000I-105000J0D01*
G01*
X35705000Y-23950000D01*
G75*
G02*
X35600000Y-23845000I0J105000D01*
G01*
X35600000Y-23355000D01*
G75*
G02*
X35705000Y-23250000I105000J0D01*
G01*
X36295000Y-23250000D01*
G75*
G02*
X36400000Y-23355000I0J-105000D01*
G01*
G37*
G36*
G01*
X28765000Y-26000000D02*
X29255000Y-26000000D01*
G75*
G02*
X29360000Y-26105000I0J-105000D01*
G01*
X29360000Y-26695000D01*
G75*
G02*
X29255000Y-26800000I-105000J0D01*
G01*
X28765000Y-26800000D01*
G75*
G02*
X28660000Y-26695000I0J105000D01*
G01*
X28660000Y-26105000D01*
G75*
G02*
X28765000Y-26000000I105000J0D01*
G01*
G37*
G36*
G01*
X28765000Y-24800000D02*
X29255000Y-24800000D01*
G75*
G02*
X29360000Y-24905000I0J-105000D01*
G01*
X29360000Y-25495000D01*
G75*
G02*
X29255000Y-25600000I-105000J0D01*
G01*
X28765000Y-25600000D01*
G75*
G02*
X28660000Y-25495000I0J105000D01*
G01*
X28660000Y-24905000D01*
G75*
G02*
X28765000Y-24800000I105000J0D01*
G01*
G37*
G36*
G01*
X36400000Y-26955000D02*
X36400000Y-27445000D01*
G75*
G02*
X36295000Y-27550000I-105000J0D01*
G01*
X35705000Y-27550000D01*
G75*
G02*
X35600000Y-27445000I0J105000D01*
G01*
X35600000Y-26955000D01*
G75*
G02*
X35705000Y-26850000I105000J0D01*
G01*
X36295000Y-26850000D01*
G75*
G02*
X36400000Y-26955000I0J-105000D01*
G01*
G37*
G36*
G01*
X35200000Y-26955000D02*
X35200000Y-27445000D01*
G75*
G02*
X35095000Y-27550000I-105000J0D01*
G01*
X34505000Y-27550000D01*
G75*
G02*
X34400000Y-27445000I0J105000D01*
G01*
X34400000Y-26955000D01*
G75*
G02*
X34505000Y-26850000I105000J0D01*
G01*
X35095000Y-26850000D01*
G75*
G02*
X35200000Y-26955000I0J-105000D01*
G01*
G37*
G36*
G01*
X40400000Y-21045000D02*
X40400000Y-20555000D01*
G75*
G02*
X40505000Y-20450000I105000J0D01*
G01*
X41095000Y-20450000D01*
G75*
G02*
X41200000Y-20555000I0J-105000D01*
G01*
X41200000Y-21045000D01*
G75*
G02*
X41095000Y-21150000I-105000J0D01*
G01*
X40505000Y-21150000D01*
G75*
G02*
X40400000Y-21045000I0J105000D01*
G01*
G37*
G36*
G01*
X39200000Y-21045000D02*
X39200000Y-20555000D01*
G75*
G02*
X39305000Y-20450000I105000J0D01*
G01*
X39895000Y-20450000D01*
G75*
G02*
X40000000Y-20555000I0J-105000D01*
G01*
X40000000Y-21045000D01*
G75*
G02*
X39895000Y-21150000I-105000J0D01*
G01*
X39305000Y-21150000D01*
G75*
G02*
X39200000Y-21045000I0J105000D01*
G01*
G37*
G36*
G01*
X36400000Y-28155000D02*
X36400000Y-28645000D01*
G75*
G02*
X36295000Y-28750000I-105000J0D01*
G01*
X35705000Y-28750000D01*
G75*
G02*
X35600000Y-28645000I0J105000D01*
G01*
X35600000Y-28155000D01*
G75*
G02*
X35705000Y-28050000I105000J0D01*
G01*
X36295000Y-28050000D01*
G75*
G02*
X36400000Y-28155000I0J-105000D01*
G01*
G37*
G36*
G01*
X35200000Y-28155000D02*
X35200000Y-28645000D01*
G75*
G02*
X35095000Y-28750000I-105000J0D01*
G01*
X34505000Y-28750000D01*
G75*
G02*
X34400000Y-28645000I0J105000D01*
G01*
X34400000Y-28155000D01*
G75*
G02*
X34505000Y-28050000I105000J0D01*
G01*
X35095000Y-28050000D01*
G75*
G02*
X35200000Y-28155000I0J-105000D01*
G01*
G37*
G36*
G01*
X24445000Y-22200000D02*
X23955000Y-22200000D01*
G75*
G02*
X23850000Y-22095000I0J105000D01*
G01*
X23850000Y-21505000D01*
G75*
G02*
X23955000Y-21400000I105000J0D01*
G01*
X24445000Y-21400000D01*
G75*
G02*
X24550000Y-21505000I0J-105000D01*
G01*
X24550000Y-22095000D01*
G75*
G02*
X24445000Y-22200000I-105000J0D01*
G01*
G37*
G36*
G01*
X24445000Y-23400000D02*
X23955000Y-23400000D01*
G75*
G02*
X23850000Y-23295000I0J105000D01*
G01*
X23850000Y-22705000D01*
G75*
G02*
X23955000Y-22600000I105000J0D01*
G01*
X24445000Y-22600000D01*
G75*
G02*
X24550000Y-22705000I0J-105000D01*
G01*
X24550000Y-23295000D01*
G75*
G02*
X24445000Y-23400000I-105000J0D01*
G01*
G37*
G36*
G01*
X25645000Y-23400000D02*
X25155000Y-23400000D01*
G75*
G02*
X25050000Y-23295000I0J105000D01*
G01*
X25050000Y-22705000D01*
G75*
G02*
X25155000Y-22600000I105000J0D01*
G01*
X25645000Y-22600000D01*
G75*
G02*
X25750000Y-22705000I0J-105000D01*
G01*
X25750000Y-23295000D01*
G75*
G02*
X25645000Y-23400000I-105000J0D01*
G01*
G37*
G36*
G01*
X25645000Y-22200000D02*
X25155000Y-22200000D01*
G75*
G02*
X25050000Y-22095000I0J105000D01*
G01*
X25050000Y-21505000D01*
G75*
G02*
X25155000Y-21400000I105000J0D01*
G01*
X25645000Y-21400000D01*
G75*
G02*
X25750000Y-21505000I0J-105000D01*
G01*
X25750000Y-22095000D01*
G75*
G02*
X25645000Y-22200000I-105000J0D01*
G01*
G37*
G36*
G01*
X40800000Y-27445000D02*
X40800000Y-26955000D01*
G75*
G02*
X40905000Y-26850000I105000J0D01*
G01*
X41495000Y-26850000D01*
G75*
G02*
X41600000Y-26955000I0J-105000D01*
G01*
X41600000Y-27445000D01*
G75*
G02*
X41495000Y-27550000I-105000J0D01*
G01*
X40905000Y-27550000D01*
G75*
G02*
X40800000Y-27445000I0J105000D01*
G01*
G37*
G36*
G01*
X39600000Y-27445000D02*
X39600000Y-26955000D01*
G75*
G02*
X39705000Y-26850000I105000J0D01*
G01*
X40295000Y-26850000D01*
G75*
G02*
X40400000Y-26955000I0J-105000D01*
G01*
X40400000Y-27445000D01*
G75*
G02*
X40295000Y-27550000I-105000J0D01*
G01*
X39705000Y-27550000D01*
G75*
G02*
X39600000Y-27445000I0J105000D01*
G01*
G37*
G36*
G01*
X33200000Y-18645000D02*
X33200000Y-18155000D01*
G75*
G02*
X33305000Y-18050000I105000J0D01*
G01*
X33895000Y-18050000D01*
G75*
G02*
X34000000Y-18155000I0J-105000D01*
G01*
X34000000Y-18645000D01*
G75*
G02*
X33895000Y-18750000I-105000J0D01*
G01*
X33305000Y-18750000D01*
G75*
G02*
X33200000Y-18645000I0J105000D01*
G01*
G37*
G36*
G01*
X32000000Y-18645000D02*
X32000000Y-18155000D01*
G75*
G02*
X32105000Y-18050000I105000J0D01*
G01*
X32695000Y-18050000D01*
G75*
G02*
X32800000Y-18155000I0J-105000D01*
G01*
X32800000Y-18645000D01*
G75*
G02*
X32695000Y-18750000I-105000J0D01*
G01*
X32105000Y-18750000D01*
G75*
G02*
X32000000Y-18645000I0J105000D01*
G01*
G37*
G36*
G01*
X31600000Y-18155000D02*
X31600000Y-18645000D01*
G75*
G02*
X31495000Y-18750000I-105000J0D01*
G01*
X30905000Y-18750000D01*
G75*
G02*
X30800000Y-18645000I0J105000D01*
G01*
X30800000Y-18155000D01*
G75*
G02*
X30905000Y-18050000I105000J0D01*
G01*
X31495000Y-18050000D01*
G75*
G02*
X31600000Y-18155000I0J-105000D01*
G01*
G37*
G36*
G01*
X30400000Y-18155000D02*
X30400000Y-18645000D01*
G75*
G02*
X30295000Y-18750000I-105000J0D01*
G01*
X29705000Y-18750000D01*
G75*
G02*
X29600000Y-18645000I0J105000D01*
G01*
X29600000Y-18155000D01*
G75*
G02*
X29705000Y-18050000I105000J0D01*
G01*
X30295000Y-18050000D01*
G75*
G02*
X30400000Y-18155000I0J-105000D01*
G01*
G37*
G36*
G01*
X23245000Y-23400000D02*
X22755000Y-23400000D01*
G75*
G02*
X22650000Y-23295000I0J105000D01*
G01*
X22650000Y-22705000D01*
G75*
G02*
X22755000Y-22600000I105000J0D01*
G01*
X23245000Y-22600000D01*
G75*
G02*
X23350000Y-22705000I0J-105000D01*
G01*
X23350000Y-23295000D01*
G75*
G02*
X23245000Y-23400000I-105000J0D01*
G01*
G37*
G36*
G01*
X23245000Y-22200000D02*
X22755000Y-22200000D01*
G75*
G02*
X22650000Y-22095000I0J105000D01*
G01*
X22650000Y-21505000D01*
G75*
G02*
X22755000Y-21400000I105000J0D01*
G01*
X23245000Y-21400000D01*
G75*
G02*
X23350000Y-21505000I0J-105000D01*
G01*
X23350000Y-22095000D01*
G75*
G02*
X23245000Y-22200000I-105000J0D01*
G01*
G37*
G36*
G01*
X26845000Y-23400000D02*
X26355000Y-23400000D01*
G75*
G02*
X26250000Y-23295000I0J105000D01*
G01*
X26250000Y-22705000D01*
G75*
G02*
X26355000Y-22600000I105000J0D01*
G01*
X26845000Y-22600000D01*
G75*
G02*
X26950000Y-22705000I0J-105000D01*
G01*
X26950000Y-23295000D01*
G75*
G02*
X26845000Y-23400000I-105000J0D01*
G01*
G37*
G36*
G01*
X26845000Y-22200000D02*
X26355000Y-22200000D01*
G75*
G02*
X26250000Y-22095000I0J105000D01*
G01*
X26250000Y-21505000D01*
G75*
G02*
X26355000Y-21400000I105000J0D01*
G01*
X26845000Y-21400000D01*
G75*
G02*
X26950000Y-21505000I0J-105000D01*
G01*
X26950000Y-22095000D01*
G75*
G02*
X26845000Y-22200000I-105000J0D01*
G01*
G37*
G36*
G01*
X41600000Y-25755000D02*
X41600000Y-26245000D01*
G75*
G02*
X41495000Y-26350000I-105000J0D01*
G01*
X40905000Y-26350000D01*
G75*
G02*
X40800000Y-26245000I0J105000D01*
G01*
X40800000Y-25755000D01*
G75*
G02*
X40905000Y-25650000I105000J0D01*
G01*
X41495000Y-25650000D01*
G75*
G02*
X41600000Y-25755000I0J-105000D01*
G01*
G37*
G36*
G01*
X40400000Y-25755000D02*
X40400000Y-26245000D01*
G75*
G02*
X40295000Y-26350000I-105000J0D01*
G01*
X39705000Y-26350000D01*
G75*
G02*
X39600000Y-26245000I0J105000D01*
G01*
X39600000Y-25755000D01*
G75*
G02*
X39705000Y-25650000I105000J0D01*
G01*
X40295000Y-25650000D01*
G75*
G02*
X40400000Y-25755000I0J-105000D01*
G01*
G37*
G36*
G01*
X37200000Y-26245000D02*
X37200000Y-25755000D01*
G75*
G02*
X37305000Y-25650000I105000J0D01*
G01*
X37895000Y-25650000D01*
G75*
G02*
X38000000Y-25755000I0J-105000D01*
G01*
X38000000Y-26245000D01*
G75*
G02*
X37895000Y-26350000I-105000J0D01*
G01*
X37305000Y-26350000D01*
G75*
G02*
X37200000Y-26245000I0J105000D01*
G01*
G37*
G36*
G01*
X38400000Y-26245000D02*
X38400000Y-25755000D01*
G75*
G02*
X38505000Y-25650000I105000J0D01*
G01*
X39095000Y-25650000D01*
G75*
G02*
X39200000Y-25755000I0J-105000D01*
G01*
X39200000Y-26245000D01*
G75*
G02*
X39095000Y-26350000I-105000J0D01*
G01*
X38505000Y-26350000D01*
G75*
G02*
X38400000Y-26245000I0J105000D01*
G01*
G37*
G36*
G01*
X41445000Y-23400000D02*
X40955000Y-23400000D01*
G75*
G02*
X40850000Y-23295000I0J105000D01*
G01*
X40850000Y-22705000D01*
G75*
G02*
X40955000Y-22600000I105000J0D01*
G01*
X41445000Y-22600000D01*
G75*
G02*
X41550000Y-22705000I0J-105000D01*
G01*
X41550000Y-23295000D01*
G75*
G02*
X41445000Y-23400000I-105000J0D01*
G01*
G37*
G36*
G01*
X41445000Y-24600000D02*
X40955000Y-24600000D01*
G75*
G02*
X40850000Y-24495000I0J105000D01*
G01*
X40850000Y-23905000D01*
G75*
G02*
X40955000Y-23800000I105000J0D01*
G01*
X41445000Y-23800000D01*
G75*
G02*
X41550000Y-23905000I0J-105000D01*
G01*
X41550000Y-24495000D01*
G75*
G02*
X41445000Y-24600000I-105000J0D01*
G01*
G37*
G36*
G01*
X7555000Y-25200000D02*
X8045000Y-25200000D01*
G75*
G02*
X8150000Y-25305000I0J-105000D01*
G01*
X8150000Y-25895000D01*
G75*
G02*
X8045000Y-26000000I-105000J0D01*
G01*
X7555000Y-26000000D01*
G75*
G02*
X7450000Y-25895000I0J105000D01*
G01*
X7450000Y-25305000D01*
G75*
G02*
X7555000Y-25200000I105000J0D01*
G01*
G37*
G36*
G01*
X7555000Y-24000000D02*
X8045000Y-24000000D01*
G75*
G02*
X8150000Y-24105000I0J-105000D01*
G01*
X8150000Y-24695000D01*
G75*
G02*
X8045000Y-24800000I-105000J0D01*
G01*
X7555000Y-24800000D01*
G75*
G02*
X7450000Y-24695000I0J105000D01*
G01*
X7450000Y-24105000D01*
G75*
G02*
X7555000Y-24000000I105000J0D01*
G01*
G37*
G36*
G01*
X19755000Y-24000000D02*
X20245000Y-24000000D01*
G75*
G02*
X20350000Y-24105000I0J-105000D01*
G01*
X20350000Y-24695000D01*
G75*
G02*
X20245000Y-24800000I-105000J0D01*
G01*
X19755000Y-24800000D01*
G75*
G02*
X19650000Y-24695000I0J105000D01*
G01*
X19650000Y-24105000D01*
G75*
G02*
X19755000Y-24000000I105000J0D01*
G01*
G37*
G36*
G01*
X19755000Y-25200000D02*
X20245000Y-25200000D01*
G75*
G02*
X20350000Y-25305000I0J-105000D01*
G01*
X20350000Y-25895000D01*
G75*
G02*
X20245000Y-26000000I-105000J0D01*
G01*
X19755000Y-26000000D01*
G75*
G02*
X19650000Y-25895000I0J105000D01*
G01*
X19650000Y-25305000D01*
G75*
G02*
X19755000Y-25200000I105000J0D01*
G01*
G37*
G36*
G01*
X22510001Y-1310001D02*
X22510001Y-910001D01*
G75*
G02*
X22710001Y-710001I200000J0D01*
G01*
X25310001Y-710001D01*
G75*
G02*
X25510001Y-910001I0J-200000D01*
G01*
X25510001Y-1310001D01*
G75*
G02*
X25310001Y-1510001I-200000J0D01*
G01*
X22710001Y-1510001D01*
G75*
G02*
X22510001Y-1310001I0J200000D01*
G01*
G37*
G36*
G01*
X22510001Y-2510001D02*
X22510001Y-2110001D01*
G75*
G02*
X22710001Y-1910001I200000J0D01*
G01*
X25310001Y-1910001D01*
G75*
G02*
X25510001Y-2110001I0J-200000D01*
G01*
X25510001Y-2510001D01*
G75*
G02*
X25310001Y-2710001I-200000J0D01*
G01*
X22710001Y-2710001D01*
G75*
G02*
X22510001Y-2510001I0J200000D01*
G01*
G37*
G36*
G01*
X22510001Y-3710001D02*
X22510001Y-3310001D01*
G75*
G02*
X22710001Y-3110001I200000J0D01*
G01*
X25310001Y-3110001D01*
G75*
G02*
X25510001Y-3310001I0J-200000D01*
G01*
X25510001Y-3710001D01*
G75*
G02*
X25310001Y-3910001I-200000J0D01*
G01*
X22710001Y-3910001D01*
G75*
G02*
X22510001Y-3710001I0J200000D01*
G01*
G37*
G36*
G01*
X22510001Y-4910001D02*
X22510001Y-4510001D01*
G75*
G02*
X22710001Y-4310001I200000J0D01*
G01*
X25310001Y-4310001D01*
G75*
G02*
X25510001Y-4510001I0J-200000D01*
G01*
X25510001Y-4910001D01*
G75*
G02*
X25310001Y-5110001I-200000J0D01*
G01*
X22710001Y-5110001D01*
G75*
G02*
X22510001Y-4910001I0J200000D01*
G01*
G37*
G36*
G01*
X22510001Y-6110001D02*
X22510001Y-5710001D01*
G75*
G02*
X22710001Y-5510001I200000J0D01*
G01*
X25310001Y-5510001D01*
G75*
G02*
X25510001Y-5710001I0J-200000D01*
G01*
X25510001Y-6110001D01*
G75*
G02*
X25310001Y-6310001I-200000J0D01*
G01*
X22710001Y-6310001D01*
G75*
G02*
X22510001Y-6110001I0J200000D01*
G01*
G37*
G36*
G01*
X22510001Y-7310001D02*
X22510001Y-6910001D01*
G75*
G02*
X22710001Y-6710001I200000J0D01*
G01*
X25310001Y-6710001D01*
G75*
G02*
X25510001Y-6910001I0J-200000D01*
G01*
X25510001Y-7310001D01*
G75*
G02*
X25310001Y-7510001I-200000J0D01*
G01*
X22710001Y-7510001D01*
G75*
G02*
X22510001Y-7310001I0J200000D01*
G01*
G37*
G36*
G01*
X22510001Y-8510001D02*
X22510001Y-8110001D01*
G75*
G02*
X22710001Y-7910001I200000J0D01*
G01*
X25310001Y-7910001D01*
G75*
G02*
X25510001Y-8110001I0J-200000D01*
G01*
X25510001Y-8510001D01*
G75*
G02*
X25310001Y-8710001I-200000J0D01*
G01*
X22710001Y-8710001D01*
G75*
G02*
X22510001Y-8510001I0J200000D01*
G01*
G37*
G36*
G01*
X22510001Y-9710001D02*
X22510001Y-9310001D01*
G75*
G02*
X22710001Y-9110001I200000J0D01*
G01*
X25310001Y-9110001D01*
G75*
G02*
X25510001Y-9310001I0J-200000D01*
G01*
X25510001Y-9710001D01*
G75*
G02*
X25310001Y-9910001I-200000J0D01*
G01*
X22710001Y-9910001D01*
G75*
G02*
X22510001Y-9710001I0J200000D01*
G01*
G37*
G36*
G01*
X22510001Y-10910001D02*
X22510001Y-10510001D01*
G75*
G02*
X22710001Y-10310001I200000J0D01*
G01*
X25310001Y-10310001D01*
G75*
G02*
X25510001Y-10510001I0J-200000D01*
G01*
X25510001Y-10910001D01*
G75*
G02*
X25310001Y-11110001I-200000J0D01*
G01*
X22710001Y-11110001D01*
G75*
G02*
X22510001Y-10910001I0J200000D01*
G01*
G37*
G36*
G01*
X22510001Y-12110001D02*
X22510001Y-11710001D01*
G75*
G02*
X22710001Y-11510001I200000J0D01*
G01*
X25310001Y-11510001D01*
G75*
G02*
X25510001Y-11710001I0J-200000D01*
G01*
X25510001Y-12110001D01*
G75*
G02*
X25310001Y-12310001I-200000J0D01*
G01*
X22710001Y-12310001D01*
G75*
G02*
X22510001Y-12110001I0J200000D01*
G01*
G37*
G36*
G01*
X22510001Y-13310001D02*
X22510001Y-12910001D01*
G75*
G02*
X22710001Y-12710001I200000J0D01*
G01*
X25310001Y-12710001D01*
G75*
G02*
X25510001Y-12910001I0J-200000D01*
G01*
X25510001Y-13310001D01*
G75*
G02*
X25310001Y-13510001I-200000J0D01*
G01*
X22710001Y-13510001D01*
G75*
G02*
X22510001Y-13310001I0J200000D01*
G01*
G37*
G36*
G01*
X22510001Y-14510001D02*
X22510001Y-14110001D01*
G75*
G02*
X22710001Y-13910001I200000J0D01*
G01*
X25310001Y-13910001D01*
G75*
G02*
X25510001Y-14110001I0J-200000D01*
G01*
X25510001Y-14510001D01*
G75*
G02*
X25310001Y-14710001I-200000J0D01*
G01*
X22710001Y-14710001D01*
G75*
G02*
X22510001Y-14510001I0J200000D01*
G01*
G37*
G36*
G01*
X26560001Y-16110001D02*
X26160001Y-16110001D01*
G75*
G02*
X25960001Y-15910001I0J200000D01*
G01*
X25960001Y-13310001D01*
G75*
G02*
X26160001Y-13110001I200000J0D01*
G01*
X26560001Y-13110001D01*
G75*
G02*
X26760001Y-13310001I0J-200000D01*
G01*
X26760001Y-15910001D01*
G75*
G02*
X26560001Y-16110001I-200000J0D01*
G01*
G37*
G36*
G01*
X27760001Y-16110001D02*
X27360001Y-16110001D01*
G75*
G02*
X27160001Y-15910001I0J200000D01*
G01*
X27160001Y-13310001D01*
G75*
G02*
X27360001Y-13110001I200000J0D01*
G01*
X27760001Y-13110001D01*
G75*
G02*
X27960001Y-13310001I0J-200000D01*
G01*
X27960001Y-15910001D01*
G75*
G02*
X27760001Y-16110001I-200000J0D01*
G01*
G37*
G36*
G01*
X28960001Y-16110001D02*
X28560001Y-16110001D01*
G75*
G02*
X28360001Y-15910001I0J200000D01*
G01*
X28360001Y-13310001D01*
G75*
G02*
X28560001Y-13110001I200000J0D01*
G01*
X28960001Y-13110001D01*
G75*
G02*
X29160001Y-13310001I0J-200000D01*
G01*
X29160001Y-15910001D01*
G75*
G02*
X28960001Y-16110001I-200000J0D01*
G01*
G37*
G36*
G01*
X30160001Y-16110001D02*
X29760001Y-16110001D01*
G75*
G02*
X29560001Y-15910001I0J200000D01*
G01*
X29560001Y-13310001D01*
G75*
G02*
X29760001Y-13110001I200000J0D01*
G01*
X30160001Y-13110001D01*
G75*
G02*
X30360001Y-13310001I0J-200000D01*
G01*
X30360001Y-15910001D01*
G75*
G02*
X30160001Y-16110001I-200000J0D01*
G01*
G37*
G36*
G01*
X31360001Y-16110001D02*
X30960001Y-16110001D01*
G75*
G02*
X30760001Y-15910001I0J200000D01*
G01*
X30760001Y-13310001D01*
G75*
G02*
X30960001Y-13110001I200000J0D01*
G01*
X31360001Y-13110001D01*
G75*
G02*
X31560001Y-13310001I0J-200000D01*
G01*
X31560001Y-15910001D01*
G75*
G02*
X31360001Y-16110001I-200000J0D01*
G01*
G37*
G36*
G01*
X32560001Y-16110001D02*
X32160001Y-16110001D01*
G75*
G02*
X31960001Y-15910001I0J200000D01*
G01*
X31960001Y-13310001D01*
G75*
G02*
X32160001Y-13110001I200000J0D01*
G01*
X32560001Y-13110001D01*
G75*
G02*
X32760001Y-13310001I0J-200000D01*
G01*
X32760001Y-15910001D01*
G75*
G02*
X32560001Y-16110001I-200000J0D01*
G01*
G37*
G36*
G01*
X33760001Y-16110001D02*
X33360001Y-16110001D01*
G75*
G02*
X33160001Y-15910001I0J200000D01*
G01*
X33160001Y-13310001D01*
G75*
G02*
X33360001Y-13110001I200000J0D01*
G01*
X33760001Y-13110001D01*
G75*
G02*
X33960001Y-13310001I0J-200000D01*
G01*
X33960001Y-15910001D01*
G75*
G02*
X33760001Y-16110001I-200000J0D01*
G01*
G37*
G36*
G01*
X37410001Y-14110001D02*
X37410001Y-14510001D01*
G75*
G02*
X37210001Y-14710001I-200000J0D01*
G01*
X34610001Y-14710001D01*
G75*
G02*
X34410001Y-14510001I0J200000D01*
G01*
X34410001Y-14110001D01*
G75*
G02*
X34610001Y-13910001I200000J0D01*
G01*
X37210001Y-13910001D01*
G75*
G02*
X37410001Y-14110001I0J-200000D01*
G01*
G37*
G36*
G01*
X37410001Y-12910001D02*
X37410001Y-13310001D01*
G75*
G02*
X37210001Y-13510001I-200000J0D01*
G01*
X34610001Y-13510001D01*
G75*
G02*
X34410001Y-13310001I0J200000D01*
G01*
X34410001Y-12910001D01*
G75*
G02*
X34610001Y-12710001I200000J0D01*
G01*
X37210001Y-12710001D01*
G75*
G02*
X37410001Y-12910001I0J-200000D01*
G01*
G37*
G36*
G01*
X37410001Y-11710001D02*
X37410001Y-12110001D01*
G75*
G02*
X37210001Y-12310001I-200000J0D01*
G01*
X34610001Y-12310001D01*
G75*
G02*
X34410001Y-12110001I0J200000D01*
G01*
X34410001Y-11710001D01*
G75*
G02*
X34610001Y-11510001I200000J0D01*
G01*
X37210001Y-11510001D01*
G75*
G02*
X37410001Y-11710001I0J-200000D01*
G01*
G37*
G36*
G01*
X37410001Y-10510001D02*
X37410001Y-10910001D01*
G75*
G02*
X37210001Y-11110001I-200000J0D01*
G01*
X34610001Y-11110001D01*
G75*
G02*
X34410001Y-10910001I0J200000D01*
G01*
X34410001Y-10510001D01*
G75*
G02*
X34610001Y-10310001I200000J0D01*
G01*
X37210001Y-10310001D01*
G75*
G02*
X37410001Y-10510001I0J-200000D01*
G01*
G37*
G36*
G01*
X37410001Y-9310001D02*
X37410001Y-9710001D01*
G75*
G02*
X37210001Y-9910001I-200000J0D01*
G01*
X34610001Y-9910001D01*
G75*
G02*
X34410001Y-9710001I0J200000D01*
G01*
X34410001Y-9310001D01*
G75*
G02*
X34610001Y-9110001I200000J0D01*
G01*
X37210001Y-9110001D01*
G75*
G02*
X37410001Y-9310001I0J-200000D01*
G01*
G37*
G36*
G01*
X37410001Y-8110001D02*
X37410001Y-8510001D01*
G75*
G02*
X37210001Y-8710001I-200000J0D01*
G01*
X34610001Y-8710001D01*
G75*
G02*
X34410001Y-8510001I0J200000D01*
G01*
X34410001Y-8110001D01*
G75*
G02*
X34610001Y-7910001I200000J0D01*
G01*
X37210001Y-7910001D01*
G75*
G02*
X37410001Y-8110001I0J-200000D01*
G01*
G37*
G36*
G01*
X37410001Y-6910001D02*
X37410001Y-7310001D01*
G75*
G02*
X37210001Y-7510001I-200000J0D01*
G01*
X34610001Y-7510001D01*
G75*
G02*
X34410001Y-7310001I0J200000D01*
G01*
X34410001Y-6910001D01*
G75*
G02*
X34610001Y-6710001I200000J0D01*
G01*
X37210001Y-6710001D01*
G75*
G02*
X37410001Y-6910001I0J-200000D01*
G01*
G37*
G36*
G01*
X37410001Y-5710001D02*
X37410001Y-6110001D01*
G75*
G02*
X37210001Y-6310001I-200000J0D01*
G01*
X34610001Y-6310001D01*
G75*
G02*
X34410001Y-6110001I0J200000D01*
G01*
X34410001Y-5710001D01*
G75*
G02*
X34610001Y-5510001I200000J0D01*
G01*
X37210001Y-5510001D01*
G75*
G02*
X37410001Y-5710001I0J-200000D01*
G01*
G37*
G36*
G01*
X37410001Y-4510001D02*
X37410001Y-4910001D01*
G75*
G02*
X37210001Y-5110001I-200000J0D01*
G01*
X34610001Y-5110001D01*
G75*
G02*
X34410001Y-4910001I0J200000D01*
G01*
X34410001Y-4510001D01*
G75*
G02*
X34610001Y-4310001I200000J0D01*
G01*
X37210001Y-4310001D01*
G75*
G02*
X37410001Y-4510001I0J-200000D01*
G01*
G37*
G36*
G01*
X37410001Y-3310001D02*
X37410001Y-3710001D01*
G75*
G02*
X37210001Y-3910001I-200000J0D01*
G01*
X34610001Y-3910001D01*
G75*
G02*
X34410001Y-3710001I0J200000D01*
G01*
X34410001Y-3310001D01*
G75*
G02*
X34610001Y-3110001I200000J0D01*
G01*
X37210001Y-3110001D01*
G75*
G02*
X37410001Y-3310001I0J-200000D01*
G01*
G37*
G36*
G01*
X37410001Y-2110001D02*
X37410001Y-2510001D01*
G75*
G02*
X37210001Y-2710001I-200000J0D01*
G01*
X34610001Y-2710001D01*
G75*
G02*
X34410001Y-2510001I0J200000D01*
G01*
X34410001Y-2110001D01*
G75*
G02*
X34610001Y-1910001I200000J0D01*
G01*
X37210001Y-1910001D01*
G75*
G02*
X37410001Y-2110001I0J-200000D01*
G01*
G37*
G36*
G01*
X37410001Y-910001D02*
X37410001Y-1310001D01*
G75*
G02*
X37210001Y-1510001I-200000J0D01*
G01*
X34610001Y-1510001D01*
G75*
G02*
X34410001Y-1310001I0J200000D01*
G01*
X34410001Y-910001D01*
G75*
G02*
X34610001Y-710001I200000J0D01*
G01*
X37210001Y-710001D01*
G75*
G02*
X37410001Y-910001I0J-200000D01*
G01*
G37*
D18*
X21000000Y-13100000D03*
X41500000Y-19400000D03*
X28300000Y-28400000D03*
X33400000Y-28400000D03*
X38800000Y-8300000D03*
D19*
X17690000Y-31800000D03*
X20230000Y-31800000D03*
X22770000Y-31800000D03*
X25310000Y-31800000D03*
D18*
X38800000Y-6900000D03*
M02*
