M48
; DRILL file {KiCad (5.1.8)-1} date 10/08/21 14:04:30
; FORMAT={-:-/ absolute / metric / decimal}
; #@! TF.CreationDate,2021-10-08T14:04:30+02:00
; #@! TF.GenerationSoftware,Kicad,Pcbnew,(5.1.8)-1
FMAT,2
METRIC
T1C0.200
T2C0.400
T3C0.650
T4C0.700
T5C0.900
T6C1.000
T7C2.600
%
G90
G05
T1
X0.5Y-0.5
X0.5Y-12.0
X0.5Y-14.0
X0.5Y-16.0
X0.5Y-18.0
X0.5Y-20.0
X0.5Y-21.0
X0.5Y-22.0
X0.5Y-26.09
X0.5Y-28.0
X0.5Y-30.0
X0.5Y-32.0
X0.6Y-9.6
X0.6Y-10.4
X0.6Y-11.2
X0.8Y-23.4
X1.0Y-19.0
X1.3Y-13.8
X1.3Y-15.8
X1.3Y-17.8
X1.3Y-29.8
X1.4Y-10.4
X1.4Y-11.2
X1.5Y-21.0
X1.5Y-22.0
X1.8Y-26.1
X2.2Y-10.4
X2.2Y-11.2
X2.3Y-12.8
X2.3Y-14.8
X2.3Y-16.8
X2.3Y-28.8
X2.4Y-21.6
X2.5Y-0.5
X3.0Y-10.4
X3.0Y-11.2
X3.0Y-20.2
X3.3Y-13.8
X3.3Y-15.8
X3.3Y-29.8
X3.7Y-24.9
X4.3Y-14.8
X4.3Y-16.8
X4.3Y-28.9
X4.3Y-30.8
X4.3Y-32.8
X4.5Y-0.5
X5.3Y-13.8
X5.3Y-15.8
X5.9Y-18.75
X6.1Y-19.5
X6.3Y-4.8
X6.3Y-6.7
X6.3Y-7.8
X6.3Y-14.8
X6.3Y-32.8
X6.5Y-0.5
X7.2Y-26.6
X7.2Y-27.35
X7.3Y-5.8
X7.3Y-13.8
X7.4Y-16.3
X8.0Y-26.65
X8.0Y-27.4
X8.3Y-4.8
X8.3Y-6.6
X8.3Y-14.8
X8.3Y-18.8
X8.3Y-32.8
X8.5Y-0.5
X8.8Y-27.4
X9.27Y-8.69
X9.3Y-1.8
X9.3Y-7.8
X9.3Y-13.8
X9.3Y-17.8
X9.3Y-19.8
X9.6Y-27.4
X9.8Y-10.4
X9.8Y-11.2
X10.3Y-2.7
X10.3Y-16.8
X10.3Y-18.8
X10.3Y-29.9
X10.3Y-32.8
X10.5Y-0.5
X10.6Y-10.4
X10.6Y-11.2
X11.3Y-1.8
X11.3Y-17.8
X11.3Y-19.8
X11.4Y-8.0
X11.4Y-8.8
X11.4Y-11.2
X12.1Y-9.6
X12.1Y-10.3
X12.2Y-8.0
X12.2Y-8.8
X12.3Y-2.8
X12.3Y-14.8
X12.3Y-16.8
X12.3Y-18.8
X12.3Y-32.8
X12.5Y-0.5
X13.3Y-1.8
X13.3Y-6.4
X13.3Y-13.8
X13.3Y-17.8
X13.3Y-26.8
X14.3Y-2.8
X14.3Y-10.8
X14.3Y-16.8
X14.3Y-20.8
X14.3Y-32.8
X14.5Y-0.5
X15.3Y-1.8
X15.3Y-17.8
X15.3Y-21.8
X16.3Y-16.8
X16.3Y-20.8
X16.3Y-23.8
X16.3Y-26.8
X16.3Y-32.8
X16.5Y-0.5
X16.7Y-10.9
X17.3Y-22.6
X18.5Y-0.5
X18.9Y-20.7
X19.6Y-15.8
X19.6Y-16.6
X19.6Y-17.4
X19.6Y-18.2
X19.6Y-26.65
X19.6Y-27.4
X19.7Y-20.7
X19.8Y-1.0
X20.3Y-29.5
X20.4Y-15.8
X20.4Y-26.65
X20.4Y-27.4
X20.5Y-0.5
X20.5Y-20.7
X21.2Y-15.8
X21.2Y-27.4
X21.3Y-29.5
X21.8Y-1.0
X22.2Y-2.6
X22.4Y-29.8
X23.0Y-20.6
X23.5Y-29.8
X23.8Y-20.6
X23.9Y-27.3
X24.3Y-32.8
X24.4Y-15.8
X24.6Y-28.4
X24.6Y-29.5
X24.8Y-27.4
X25.2Y-15.8
X25.2Y-16.6
X25.2Y-26.6
X26.3Y-12.6
X26.3Y-32.8
X26.8Y-8.2
X26.8Y-9.0
X26.8Y-9.8
X26.8Y-11.8
X27.6Y-9.0
X27.6Y-11.8
X27.8Y-6.5
X27.8Y-7.3
X28.3Y-32.8
X28.4Y-23.2
X28.4Y-24.2
X28.9Y-27.3
X29.3Y-9.8
X29.3Y-12.4
X29.3Y-23.2
X29.3Y-24.2
X29.7Y-21.8
X30.2Y-28.6
X30.25Y-19.7
X30.3Y-30.8
X30.3Y-32.8
X31.3Y-9.8
X31.3Y-12.4
X31.4Y-22.6
X31.4Y-29.4
X31.45Y-21.9
X31.9Y-28.2
X32.2Y-22.6
X32.3Y-8.8
X32.3Y-10.8
X32.5Y-29.4
X32.8Y-17.6
X33.15Y-11.8
X33.3Y-9.8
X33.5Y-6.9
X33.85Y-12.25
X34.55Y-19.8
X34.8Y-29.4
X35.8Y-20.6
X35.8Y-21.8
X36.3Y-30.8
X36.3Y-32.8
X36.6Y-18.2
X37.3Y-24.8
X37.4Y-17.0
X37.7Y-16.1
X37.9Y-10.8
X38.15Y-3.05
X38.3Y-32.8
X38.4Y-0.5
X39.2Y-0.5
X39.8Y-11.4
X39.918Y-15.9
X40.0Y-0.5
X40.2Y-17.0
X40.3Y-32.8
X40.35Y-26.8
X40.5Y-7.3
X40.6Y-11.4
X42.2Y-2.8
X42.3Y-0.45
X42.3Y-4.5
X42.3Y-6.5
X42.3Y-10.5
X42.3Y-12.5
X42.3Y-14.5
X42.3Y-16.5
X42.3Y-18.5
X42.3Y-20.5
X42.3Y-22.5
X42.3Y-24.5
X42.3Y-26.5
X42.3Y-28.5
X42.3Y-30.5
X42.3Y-32.5
T2
X22.4Y-16.8
X22.4Y-17.6
T5
X18.2Y-2.93
X18.2Y-5.47
T6
X15.53Y-9.46
X15.53Y-12.0
X15.53Y-14.54
X18.07Y-9.46
X18.07Y-12.0
X18.07Y-14.54
X17.69Y-31.8
X20.23Y-31.8
X22.77Y-31.8
X25.31Y-31.8
T7
X7.4Y-29.9
X14.3Y-29.9
T3
G00X4.83Y-2.175
M15
G01X4.43Y-2.175
M16
G05
G00X4.83Y-7.025
M15
G01X4.43Y-7.025
M16
G05
T4
G00X1.85Y-1.875
M15
G01X1.35Y-1.875
M16
G05
G00X1.85Y-7.325
M15
G01X1.35Y-7.325
M16
G05
T0
M30
